<svg xmlns="http://www.w3.org/2000/svg" width="223.894" height="200.819" viewBox="0 0 223.894 200.819"><g transform="translate(0 146.369) rotate(-45)" opacity="0.05"><path d="M118.484,143.256l-13.139,29.509H95.76l14.432-31.556c-6.785-3.446-11.308-9.693-11.308-21.217,0-16.155,10.231-24.232,22.4-24.232H133.67v77h-8.293V143.256Zm6.893-40.5h-4.416c-6.677,0-13.139,4.416-13.139,17.232,0,12.385,5.924,16.37,13.139,16.37h4.416Z" transform="translate(-95.76 -95.76)" fill="red"/><path d="M199.061,129.963v54.281h-8.293V159.9H178.275v24.34h-8.4V129.963h8.4v23.048h12.493V129.963Zm43.187,64.943h-7.539V184.244H211.446v10.662h-7.539V177.351h3.339c4.954-11.524,5.492-28.325,5.492-42.757v-4.631h25.2v47.388h4.308Zm-12.6-58.158h-9.37v.969c0,11.416-.539,28.11-5.062,39.633h14.432ZM265.4,185c-11.2,0-18.093-8.939-18.093-25.632,0-17.448,4.847-30.156,16.37-30.156,9.047,0,14.97,6.785,14.97,25.2v4.631H256.034c0,12.277,3.446,18.74,10.124,18.74a18.821,18.821,0,0,0,10.662-3.662l1.939,6.462A21.376,21.376,0,0,1,265.4,185Zm-9.262-32.848h13.893c0-9.262-1.508-16.047-6.354-16.047C258.511,136.1,256.68,142.456,256.142,152.149Zm39.526,5.062v27.032h-8.4V129.963h8.4v25.094L308.7,129.963h8.508l-13.462,25.525,15.4,28.756h-9.154Zm24.555-.108c0-17.017,6.57-27.894,19.279-27.894a17.082,17.082,0,0,1,10.016,2.8l-1.185,7.97c-2.262-1.939-5.493-3.769-8.939-3.769-6.031,0-10.339,6.785-10.339,20.463,0,13.57,3.231,21.324,10.016,21.324a13.716,13.716,0,0,0,9.154-3.339l1.938,6.247A16.432,16.432,0,0,1,338.854,185c-11.631,0-18.632-9.369-18.632-27.893Z" transform="translate(-121.195 -107.239)"/></g></svg>