<svg width="289" height="268" viewBox="0 0 289 268" fill="none" xmlns="http://www.w3.org/2000/svg">
<g clip-path="url(#clip0_20_2)">
<path fill-rule="evenodd" clip-rule="evenodd" d="M83.6894 122.733C83.1834 122.207 82.5827 121.789 81.9216 121.505C81.2605 121.22 80.5519 121.073 79.8364 121.073C79.1208 121.073 78.4122 121.22 77.7511 121.505C77.09 121.789 76.4893 122.207 75.9833 122.733L54.4664 145.109C44.2999 155.682 38.5884 170.021 38.5883 184.973C38.5883 199.925 44.2996 214.265 54.4659 224.837L75.9838 247.215C77.0056 248.277 78.3916 248.874 79.8368 248.874C81.282 248.874 82.6679 248.277 83.6898 247.215L105.207 224.838C115.373 214.266 121.085 199.926 121.085 184.974C121.085 170.022 115.373 155.683 105.207 145.11L83.6894 122.733ZM46.5037 136.829C34.2253 149.598 27.3274 166.916 27.3274 184.974C27.3274 203.031 34.2253 220.35 46.5037 233.119L75.2071 262.969C76.4349 264.245 78.1001 264.963 79.8364 264.963C81.5727 264.963 83.2379 264.245 84.4656 262.969L113.169 233.119C125.447 220.35 132.345 203.031 132.345 184.974C132.345 166.916 125.447 149.598 113.169 136.829L84.4656 106.979C83.2379 105.702 81.5727 104.985 79.8364 104.985C78.1001 104.985 76.4349 105.702 75.2071 106.979L46.5037 136.829Z" stroke="black" stroke-width="0.5"/>
<path d="M133.072 115.32L108.798 90.0767L115.317 83.297L134.251 102.987L145.592 91.192L150.934 96.7469L133.072 115.32Z" stroke="black" stroke-width="0.5"/>
<path d="M154.407 93.133L130.133 67.8896L136.652 61.11L160.926 86.3534L154.407 93.133Z" stroke="black" stroke-width="0.5"/>
<path d="M159.297 37.5608L170.601 25.8047L194.875 51.0481L188.668 57.5031L168.694 36.7315L184.784 61.5422L176.011 70.6658L152.154 53.9328L172.127 74.7044L165.92 81.1599L141.646 55.9165L153.055 44.0523L175.907 61.3261L159.297 37.5608Z" stroke="black" stroke-width="0.5"/>
<path d="M199.852 45.8723L175.578 20.6289L182.097 13.8501L191.632 23.7666L201.411 13.5971L206.196 18.5731L196.417 28.7426L201.272 33.7915L214.381 20.1593L219.477 25.4595L199.852 45.8723Z" stroke="black" stroke-width="0.5"/>
<path d="M164.467 111.254L175.771 99.4983L200.045 124.742L193.836 131.199L173.862 110.427L189.951 135.239L181.179 144.361L157.322 127.628L177.295 148.399L171.088 154.855L146.814 129.612L158.223 117.747L181.076 135.021L164.467 111.254Z" stroke="black" stroke-width="0.5"/>
<path d="M205.02 119.568L180.746 94.3242L187.266 87.5446L196.801 97.461L206.58 87.2915L211.365 92.2676L201.586 102.437L206.441 107.486L219.55 93.8538L224.646 99.154L205.02 119.568Z" stroke="black" stroke-width="0.5"/>
<path d="M228.522 95.1271L204.248 69.8838L214.998 58.7049C218.72 54.834 222.673 52.9828 226.857 53.1512C231.019 53.2953 234.983 55.3266 238.751 59.2452C242.519 63.1638 244.484 67.299 244.646 71.651C244.785 75.9783 242.993 80.0774 239.271 83.9482L228.522 95.1271ZM229.699 82.7925L233.202 79.1501C235.122 77.1538 235.965 75.0263 235.734 72.7676C235.526 70.484 234.358 68.2361 232.231 66.024C230.104 63.8118 227.944 62.5975 225.75 62.3811C223.577 62.141 221.531 63.0187 219.612 65.0141L216.11 68.6565L229.699 82.7925Z" stroke="black" stroke-width="0.5"/>
<path d="M254.698 67.9055L230.424 42.6621L236.945 35.8807L261.219 61.1241L254.698 67.9055Z" stroke="black" stroke-width="0.5"/>
<path fill-rule="evenodd" clip-rule="evenodd" d="M275.749 35.6999L282.13 39.3783L288.754 32.4902L257.127 14.8927L247.07 25.3516L263.992 58.2404L270.409 51.5671L266.872 44.9315L263.334 38.368L255.636 24.0158L269.437 32.0215L275.749 35.6999Z" stroke="black" stroke-width="0.5"/>
</g>
<defs>
<clipPath id="clip0_20_2">
<rect width="289" height="268" fill="white"/>
</clipPath>
</defs>
</svg>
