<svg xmlns="http://www.w3.org/2000/svg" width="271.85" height="258.582" viewBox="0 0 271.85 258.582"><g transform="translate(-1067.615 -229.539)"><path d="M26.228,260.4C11.91,260.4,0,271.93,0,286.121s11.91,25.594,26.228,25.594c7.729,0,13.431-2.534,17.992-7.222,4.688-4.688,6.082-11.15,6.082-16.345a23.145,23.145,0,0,0-.38-4.435H26.228v6.969H43.08c-.507,3.928-1.774,6.842-3.8,8.869a17.455,17.455,0,0,1-13.051,5.195,18.626,18.626,0,0,1,0-37.251A17.407,17.407,0,0,1,38.9,272.564l4.941-4.942A24.322,24.322,0,0,0,26.228,260.4Zm42.953,18.372A16.727,16.727,0,1,0,85.653,295.5a16.338,16.338,0,0,0-16.472-16.725m0,26.861c-4.941,0-9.249-4.181-9.249-10.136s4.308-10.136,9.249-10.136,9.249,4.055,9.249,10.136c0,5.955-4.308,10.136-9.249,10.136m35.731-26.861A16.727,16.727,0,1,0,121.383,295.5a16.263,16.263,0,0,0-16.472-16.725m0,26.861c-4.942,0-9.249-4.181-9.249-10.136s4.308-10.136,9.249-10.136,9.249,4.055,9.249,10.136c0,5.955-4.181,10.136-9.249,10.136m35.6-26.861c-8.236,0-15.711,7.222-15.711,16.6,0,9.25,7.476,16.472,15.711,16.472a11.073,11.073,0,0,0,8.616-3.8h.253v2.407c0,6.335-3.294,9.756-8.743,9.756a9.041,9.041,0,0,1-8.236-5.828l-6.335,2.661a15.539,15.539,0,0,0,14.571,9.756c8.489,0,15.585-5.068,15.585-17.232V279.913h-6.842v2.661h-.253a11.073,11.073,0,0,0-8.616-3.8m.634,26.608c-4.941,0-9.123-4.181-9.123-10.01s4.181-10.136,9.123-10.136,8.743,4.308,8.743,10.136-3.8,10.01-8.743,10.01m20.4-42.953h7.222v48.908h-7.222Zm26.608,16.345c-8.616,0-15.838,6.715-15.838,16.725a16.367,16.367,0,0,0,16.6,16.725,16.566,16.566,0,0,0,13.938-7.349l-5.7-3.8a9.575,9.575,0,0,1-8.236,4.561,8.3,8.3,0,0,1-8.109-5.068l22.427-9.249-.76-1.9c-1.394-3.675-5.7-10.643-14.318-10.643m-8.616,16.218a9.174,9.174,0,0,1,8.743-9.756c2.914,0,5.448,1.394,6.209,3.548Z" transform="translate(890.022 249.119) rotate(-43)" opacity="0.05"/><g transform="translate(-42.83 293.622) rotate(-13)" opacity="0.05"><g transform="translate(888.172 105.448) rotate(-30)"><path d="M170.4,309.373,187.125,264.9h6.462l16.725,44.473h-6.335l-4.308-12.037H181.043l-4.308,12.037Zm12.544-17.359h14.825L190.546,272h-.253Z" transform="translate(45.505 70.742)"/></g><path d="M207.381,305.7a16.771,16.771,0,0,1-4.181-11.53,17.226,17.226,0,0,1,4.181-11.53,13.273,13.273,0,0,1,10.263-4.688,13.439,13.439,0,0,1,6.082,1.394,10.548,10.548,0,0,1,4.308,3.8h.253l-.253-4.181V264.9h5.7v44.473h-5.448v-4.181h-.253a11.541,11.541,0,0,1-4.308,3.8,12.619,12.619,0,0,1-6.082,1.394,13.091,13.091,0,0,1-10.263-4.688m17.992-3.548a12.642,12.642,0,0,0,0-15.838,9.218,9.218,0,0,0-13.684,0,12.463,12.463,0,0,0,0,15.711,9.05,9.05,0,0,0,6.842,3.041,8.2,8.2,0,0,0,6.842-2.914" transform="translate(969.537 136.579) rotate(-30)"/><path d="M252.693,304.849a14.987,14.987,0,0,1-16.852.38,13.567,13.567,0,0,1-4.942-6.335l5.068-2.154a9.4,9.4,0,0,0,3.294,4.308,7.962,7.962,0,0,0,4.688,1.521,8.706,8.706,0,0,0,4.561-1.14,3.216,3.216,0,0,0,1.774-2.787c0-1.9-1.52-3.421-4.435-4.308l-5.195-1.267c-5.955-1.521-8.869-4.308-8.869-8.616a8.063,8.063,0,0,1,3.421-6.715,14.455,14.455,0,0,1,8.616-2.534,14.778,14.778,0,0,1,7.349,1.9,10.647,10.647,0,0,1,4.561,5.195l-5.068,2.154a7.16,7.16,0,0,0-2.788-3.041,8.56,8.56,0,0,0-4.435-1.14,7.538,7.538,0,0,0-4.055,1.14,3.327,3.327,0,0,0-1.774,2.788c0,1.774,1.647,3.041,4.942,3.674l4.561,1.14c6.082,1.52,9,4.561,9,9.123a7.9,7.9,0,0,1-3.421,6.715" transform="translate(980.318 133.263) rotate(-30)"/></g></g></svg>