<svg xmlns="http://www.w3.org/2000/svg" xmlns:xlink="http://www.w3.org/1999/xlink" width="1920" height="295" viewBox="0 0 1920 295"><defs><clipPath id="a"><rect width="1920" height="295" transform="translate(0 4716)" fill="#272727" stroke="#707070" stroke-width="1"/></clipPath></defs><g transform="translate(0 -4716)" clip-path="url(#a)"><g transform="translate(-120 4716)"><path d="M3352.508,2119.241l-457.333-182.049-1128,117.355-370.333-159.213,15.583,716.45-136.363,358.573v15.915L1597.272,2808.9,1996,2893.616l632,76.74L3375.174,2808.9Z" transform="translate(-1158 -912.332)" fill="#272727"/><path d="M3262.174,2061.363,2476.96,1873.387l-787.174,159.971-376-120.526L1122,2803.191l26,181.044,366-259.122-194,169.426,377.333-67.106L2934,2846.7h8l234-42.855h199.174Z" transform="translate(-1080 -891.329)" fill="#272727" stroke="#707070" stroke-width="1"/><path d="M1397.667,2119.241l22.333-148.5v-55.811l276,75.743h29l275-45.845,983,109.715,370.333-159.213,21.841,874.45L3184,3304.224,1310,3479.629Z" transform="translate(-1310 -1865.103)" fill="#242424" opacity="0.51"/><path d="M757-74.056,1265-90,1537-2.3c17.079,0,203,237.258,203,253.142l27,444.493c0,15.884-9.921,912.905-27,912.905l-78-65.777-265,330.878L1316,1767.7l-202,55.811L67,1570.369l-143-69.764L-268,1767.7V1570.369l-61-672.72,602-93.682L-329,897.65c-17.079,0,24-155.393,24-171.277l45-792.456c0-3.24,226,31.892,226,31.892L202-90S747.179-74.056,757-74.056Z" transform="translate(348 147.806)" fill="#fe8455"/><path d="M1407,2061.263,1991,1844l988.388,189.258,376-120.526,16.645,2459.675h0l-438.849,279.416L1764.03,4334.536l-360,135.541L1415,3566.162Z" transform="translate(-1307 -1844)" fill="#272727"/></g></g></svg>