<svg xmlns="http://www.w3.org/2000/svg" width="175" height="43.7" viewBox="0 0 175 43.7"><path d="M16.5-3.11H3.284V-26.659H15.978v3.317H7.192v6.667h8.1v3.3h-8.1v6.963H16.5ZM37.135-23.342h-8.8v7.08h8.112v3.3H28.333V-3.11H24.425V-26.659h12.71ZM49.063-3.11H45.039V-26.659h4.023Zm34.82,0H80.007V-18.35q0-1.872.23-4.582h-.065a15.824,15.824,0,0,1-.641,2.213L72.5-3.11H69.809L62.764-20.583a16.461,16.461,0,0,1-.624-2.348h-.065q.131,1.416.131,4.615V-3.11H58.593V-26.659h5.5l6.2,15.683a23.182,23.182,0,0,1,.92,2.693h.082q.608-1.859.985-2.759l6.306-15.618h5.3ZM109.834-4.1a14.276,14.276,0,0,1-6.613,1.379,10.822,10.822,0,0,1-8.211-3.235,11.787,11.787,0,0,1-3.092-8.488,12.363,12.363,0,0,1,3.473-9.13,11.882,11.882,0,0,1,8.777-3.482,14.385,14.385,0,0,1,5.664.969v3.876a10.11,10.11,0,0,0-5.255-1.416,8.248,8.248,0,0,0-6.2,2.447,8.989,8.989,0,0,0-2.373,6.536,8.572,8.572,0,0,0,2.213,6.2,7.715,7.715,0,0,0,5.83,2.307,10.438,10.438,0,0,0,5.782-1.576Zm27.119.985h-3.925V-13.325H121.944V-3.11h-3.908V-26.659h3.908v9.9h11.084v-9.9h3.925Zm13.554,0h-4.024V-26.659h4.023Zm27.348,0h-5.091L164.57-13.883a5.949,5.949,0,0,1-.558-.821h-.065V-3.11h-3.908V-26.659h3.908v11.069h.065a5.418,5.418,0,0,1,.558-.8l7.9-10.267h4.68l-9.246,11.3Z" transform="translate(-3.284 27.058)" fill="#fff"/><path d="M.707,4.6V2.18a3.743,3.743,0,0,0,.776.531,6,6,0,0,0,.955.4,7.523,7.523,0,0,0,1.009.252,5.379,5.379,0,0,0,.93.089A3.969,3.969,0,0,0,6.59,2.958a1.628,1.628,0,0,0,.728-1.435A1.565,1.565,0,0,0,7.072.651a2.542,2.542,0,0,0-.678-.678A7.12,7.12,0,0,0,5.371-.615Q4.783-.9,4.11-1.2q-.722-.386-1.345-.782a5.79,5.79,0,0,1-1.083-.875A3.663,3.663,0,0,1,.959-3.944,3.528,3.528,0,0,1,.694-5.36,3.265,3.265,0,0,1,1.144-7.1a3.806,3.806,0,0,1,1.19-1.214,5.442,5.442,0,0,1,1.677-.708,7.966,7.966,0,0,1,1.919-.233,7.746,7.746,0,0,1,3.245.5v2.325a5.182,5.182,0,0,0-3.107-.871,5.565,5.565,0,0,0-1.043.1,3.1,3.1,0,0,0-.93.327,2.013,2.013,0,0,0-.667.583,1.43,1.43,0,0,0-.258.86,1.628,1.628,0,0,0,.2.819,2.118,2.118,0,0,0,.579.633,5.912,5.912,0,0,0,.93.559q.549.272,1.271.589.742.386,1.4.812a6.6,6.6,0,0,1,1.157.938A4.13,4.13,0,0,1,9.5.068,3.355,3.355,0,0,1,9.789,1.5a3.54,3.54,0,0,1-.435,1.821A3.508,3.508,0,0,1,8.181,4.524a5.222,5.222,0,0,1-1.7.673A9.566,9.566,0,0,1,4.457,5.4a8.636,8.636,0,0,1-.875-.054Q3.062,5.3,2.52,5.192A9.781,9.781,0,0,1,1.491,4.94,3.257,3.257,0,0,1,.707,4.6ZM23.74-7.021H19.669V5.167H17.314V-7.021h-4.07v-2h10.5ZM38.978-.57q0,5.975-5.658,5.975Q27.9,5.4,27.9-.343V-9.016h2.354V-.828q0,4.175,3.245,4.175,3.126,0,3.126-4.026v-8.34h2.354Zm5.583,5.738V-9.019h4.1Q56.5-9.019,56.5-2.1a6.815,6.815,0,0,1-2.176,5.278,8.306,8.306,0,0,1-5.837,1.993ZM46.905-7.02v10.2h1.879a5.255,5.255,0,0,0,3.863-1.365,5.185,5.185,0,0,0,1.38-3.858q0-4.976-5.154-4.976ZM63.755,5.167H61.331V-9.019h2.423ZM75.342,5.4a6.38,6.38,0,0,1-4.911-1.989,7.3,7.3,0,0,1-1.848-5.173,7.738,7.738,0,0,1,1.88-5.461,6.6,6.6,0,0,1,5.1-2.036A6.238,6.238,0,0,1,80.38-7.276,7.328,7.328,0,0,1,82.205-2.1a7.762,7.762,0,0,1-1.869,5.487A6.483,6.483,0,0,1,75.342,5.4Zm.109-12.593a3.946,3.946,0,0,0-3.17,1.454,5.753,5.753,0,0,0-1.22,3.829A5.808,5.808,0,0,0,72.248,1.9a3.828,3.828,0,0,0,3.107,1.444A4.01,4.01,0,0,0,78.57,1.969a5.737,5.737,0,0,0,1.177-3.848A6.018,6.018,0,0,0,78.6-5.8,3.862,3.862,0,0,0,75.451-7.189Z" transform="translate(92.783 38.289)" fill="#fff"/><path d="M1.328,0A1.328,1.328,0,1,1,0,1.328,1.328,1.328,0,0,1,1.328,0Z" transform="translate(167.025 35.011)" fill="#fff"/></svg>