<svg xmlns="http://www.w3.org/2000/svg" xmlns:xlink="http://www.w3.org/1999/xlink" width="364.999" height="755" viewBox="0 0 364.999 755"><defs><linearGradient id="a" x1="0.051" y1="-0.087" x2="1.113" y2="0.937" gradientUnits="objectBoundingBox"><stop offset="0" stop-color="#4d4d4d"/><stop offset="1" stop-color="#1a1a1a"/></linearGradient><linearGradient id="b" x1="-0.001" y1="0.5" x2="1.004" y2="0.5" gradientUnits="objectBoundingBox"><stop offset="0" stop-color="#7c7d7d"/><stop offset="0.138" stop-color="#7f8080"/><stop offset="0.26" stop-color="#898a8b"/><stop offset="0.375" stop-color="#9a9b9d"/><stop offset="0.487" stop-color="#b1b3b6"/><stop offset="0.595" stop-color="#cfd2d7"/><stop offset="0.701" stop-color="#f4f8fe"/><stop offset="0.702" stop-color="#f5f9ff"/><stop offset="0.781" stop-color="#f2f6fc"/><stop offset="0.831" stop-color="#eaeef3"/><stop offset="0.872" stop-color="#dcdfe5"/><stop offset="0.909" stop-color="#c9cbd0"/><stop offset="0.943" stop-color="#b0b1b5"/><stop offset="0.975" stop-color="#919295"/><stop offset="1" stop-color="#737375"/></linearGradient><linearGradient id="c" x1="-0.089" y1="0.911" x2="0.99" y2="-0.118" xlink:href="#a"/><linearGradient id="d" x1="1.004" x2="-0.004" xlink:href="#b"/><linearGradient id="e" x1="0.5" y1="1.025" x2="0.5" y2="-0.008" gradientUnits="objectBoundingBox"><stop offset="0" stop-color="#bfc1c7" stop-opacity="0.702"/><stop offset="0.276" stop-color="#c0c2c8" stop-opacity="0.706"/><stop offset="0.452" stop-color="#c4c6cc" stop-opacity="0.729"/><stop offset="0.6" stop-color="#ccced3" stop-opacity="0.765"/><stop offset="0.732" stop-color="#d7d8dd" stop-opacity="0.82"/><stop offset="0.855" stop-color="#e4e6ea" stop-opacity="0.89"/><stop offset="0.968" stop-color="#f5f6f9" stop-opacity="0.973"/><stop offset="1" stop-color="#fbfcff"/></linearGradient><linearGradient id="f" x1="0.051" y1="183.122" x2="1.113" y2="184.146" xlink:href="#a"/><linearGradient id="g" x1="0.006" x2="0.999" xlink:href="#b"/><linearGradient id="h" x1="0.959" y1="1.096" x2="-0.05" y2="0.123" xlink:href="#a"/><linearGradient id="i" x1="0.995" x2="-0.007" xlink:href="#b"/><linearGradient id="j" y1="283.198" y2="282.166" xlink:href="#e"/><linearGradient id="k" y1="0.5" x2="1" y2="0.5" gradientUnits="objectBoundingBox"><stop offset="0" stop-color="#2e2e2e"/><stop offset="0.065"/><stop offset="0.185" stop-color="#363636"/><stop offset="0.801" stop-color="#363636"/><stop offset="0.937"/><stop offset="1" stop-color="#2e2e2e"/></linearGradient><linearGradient id="l" y1="0.5" x2="1" y2="0.5" gradientUnits="objectBoundingBox"><stop offset="0" stop-color="#dcdde3" stop-opacity="0.702"/><stop offset="0.41" stop-color="#dcdde3" stop-opacity="0.706"/><stop offset="0.579" stop-color="#dfe0e5" stop-opacity="0.725"/><stop offset="0.703" stop-color="#e3e4e8" stop-opacity="0.765"/><stop offset="0.805" stop-color="#e9eaed" stop-opacity="0.816"/><stop offset="0.894" stop-color="#f1f1f4" stop-opacity="0.882"/><stop offset="0.973" stop-color="#fafbfb" stop-opacity="0.965"/><stop offset="1" stop-color="#fff"/></linearGradient><linearGradient id="m" x1="15.882" x2="16.882" xlink:href="#l"/><linearGradient id="n" y1="0.5" x2="1" y2="0.5" gradientUnits="objectBoundingBox"><stop offset="0" stop-opacity="0"/><stop offset="0.012" stop-color="#1f1f1f" stop-opacity="0.122"/><stop offset="0.035" stop-color="#535353" stop-opacity="0.325"/><stop offset="0.058" stop-color="#818181" stop-opacity="0.506"/><stop offset="0.083" stop-color="#a7a7a7" stop-opacity="0.659"/><stop offset="0.107" stop-color="#c7c7c7" stop-opacity="0.784"/><stop offset="0.133" stop-color="#e0e0e0" stop-opacity="0.878"/><stop offset="0.16" stop-color="#f1f1f1" stop-opacity="0.945"/><stop offset="0.189" stop-color="#fbfbfb" stop-opacity="0.988"/><stop offset="0.223" stop-color="#fff"/><stop offset="0.685" stop-color="#fff"/><stop offset="0.763" stop-color="#fff"/><stop offset="0.842" stop-color="#fcfcfc" stop-opacity="0.992"/><stop offset="0.874" stop-color="#f5f5f5" stop-opacity="0.965"/><stop offset="0.898" stop-color="#e9e9e9" stop-opacity="0.918"/><stop offset="0.918" stop-color="#d8d8d8" stop-opacity="0.847"/><stop offset="0.935" stop-color="#c1c1c1" stop-opacity="0.757"/><stop offset="0.95" stop-color="#a4a4a4" stop-opacity="0.647"/><stop offset="0.964" stop-color="#838383" stop-opacity="0.514"/><stop offset="0.977" stop-color="#5c5c5c" stop-opacity="0.361"/><stop offset="0.989" stop-color="#313131" stop-opacity="0.196"/><stop offset="1" stop-color="#020202" stop-opacity="0.008"/><stop offset="1" stop-opacity="0"/></linearGradient><linearGradient id="o" y1="450.81" y2="450.81" xlink:href="#n"/><radialGradient id="p" cx="0.5" cy="0.5" r="0.5" gradientUnits="objectBoundingBox"><stop offset="0.6"/><stop offset="0.757" stop-color="#003" stop-opacity="0.82"/><stop offset="0.947" stop-color="#0000c8" stop-opacity="0.294"/><stop offset="1" stop-color="blue" stop-opacity="0.102"/></radialGradient><linearGradient id="q" x1="0.064" y1="0.162" x2="1.131" y2="0.996" gradientUnits="objectBoundingBox"><stop offset="0" stop-color="#5482ff"/><stop offset="0.083" stop-color="#4064c5" stop-opacity="0.839"/><stop offset="0.168" stop-color="#2f4a91" stop-opacity="0.698"/><stop offset="0.254" stop-color="#213364" stop-opacity="0.576"/><stop offset="0.341" stop-color="#152040" stop-opacity="0.478"/><stop offset="0.427" stop-color="#0b1224" stop-opacity="0.4"/><stop offset="0.513" stop-color="#050810" stop-opacity="0.345"/><stop offset="0.599" stop-color="#010204" stop-opacity="0.31"/><stop offset="0.685" stop-opacity="0.302"/></linearGradient><linearGradient id="r" x1="0.095" y1="0.194" x2="1.616" y2="0.946" gradientUnits="objectBoundingBox"><stop offset="0" stop-color="#5482ff"/><stop offset="0.068" stop-color="#4064c5" stop-opacity="0.839"/><stop offset="0.137" stop-color="#2f4a91" stop-opacity="0.698"/><stop offset="0.208" stop-color="#213364" stop-opacity="0.576"/><stop offset="0.278" stop-color="#152040" stop-opacity="0.478"/><stop offset="0.349" stop-color="#0b1224" stop-opacity="0.4"/><stop offset="0.419" stop-color="#050810" stop-opacity="0.345"/><stop offset="0.489" stop-color="#010204" stop-opacity="0.31"/><stop offset="0.559" stop-opacity="0.302"/></linearGradient><linearGradient id="s" y1="0.5" x2="1" y2="0.5" gradientUnits="objectBoundingBox"><stop offset="0" stop-color="gray"/><stop offset="0.326" stop-color="#a9a9a9" stop-opacity="0.89"/><stop offset="0.663" stop-color="#c3c3c3" stop-opacity="0.824"/><stop offset="1" stop-color="#ccc" stop-opacity="0.8"/></linearGradient><linearGradient id="t" x1="68.684" y1="0.5" x2="69.684" y2="0.5" gradientUnits="objectBoundingBox"><stop offset="0" stop-color="gray"/><stop offset="0.195" stop-color="#9a9a9a" stop-opacity="0.965"/><stop offset="0.463" stop-color="#b6b6b6" stop-opacity="0.929"/><stop offset="0.732" stop-color="#c6c6c6" stop-opacity="0.906"/><stop offset="1" stop-color="#ccc" stop-opacity="0.902"/></linearGradient><linearGradient id="u" x1="0.005" y1="0.5" x2="1.023" y2="0.5" gradientUnits="objectBoundingBox"><stop offset="0" stop-color="#4a4a4a"/><stop offset="0.168" stop-color="#4d4d4d"/><stop offset="0.328" stop-color="#595959"/><stop offset="0.485" stop-color="#6c6c6c"/><stop offset="0.64" stop-color="#878787"/><stop offset="0.794" stop-color="#aaa"/><stop offset="0.945" stop-color="#d4d4d4"/><stop offset="1" stop-color="#e6e6e6"/></linearGradient><linearGradient id="v" x1="0.5" y1="-0.002" x2="0.5" y2="1.002" gradientUnits="objectBoundingBox"><stop offset="0.016"/><stop offset="0.026" stop-color="#1b1b1b"/><stop offset="0.049" stop-color="#5b5b5b"/><stop offset="0.072" stop-color="#909090"/><stop offset="0.092" stop-color="#b9b9b9"/><stop offset="0.111" stop-color="#d7d7d7"/><stop offset="0.127" stop-color="#e9e9e9"/><stop offset="0.139" stop-color="#f0f0f0"/><stop offset="0.866" stop-color="#f0f0f0"/><stop offset="0.878" stop-color="#ebebeb"/><stop offset="0.893" stop-color="#dcdcdc"/><stop offset="0.908" stop-color="#c4c4c4"/><stop offset="0.925" stop-color="#a3a3a3"/><stop offset="0.942" stop-color="#787878"/><stop offset="0.96" stop-color="#434343"/><stop offset="0.978" stop-color="#060606"/><stop offset="0.98"/></linearGradient><linearGradient id="w" x1="382.335" x2="383.351" xlink:href="#u"/><linearGradient id="x" x1="121.642" y1="-0.002" x2="121.642" y2="1.002" gradientUnits="objectBoundingBox"><stop offset="0" stop-color="#121212"/><stop offset="0.003" stop-color="#1c1c1c"/><stop offset="0.026" stop-color="#5b5b5b"/><stop offset="0.047" stop-color="#909090"/><stop offset="0.067" stop-color="#b9b9b9"/><stop offset="0.084" stop-color="#d7d7d7"/><stop offset="0.1" stop-color="#e9e9e9"/><stop offset="0.111" stop-color="#f0f0f0"/><stop offset="0.911" stop-color="#f0f0f0"/><stop offset="0.921" stop-color="#ebebeb"/><stop offset="0.934" stop-color="#dcdcdc"/><stop offset="0.947" stop-color="#c4c4c4"/><stop offset="0.962" stop-color="#a3a3a3"/><stop offset="0.976" stop-color="#787878"/><stop offset="0.992" stop-color="#444"/><stop offset="1" stop-color="#242424"/></linearGradient><linearGradient id="aa" x1="0.5" y1="0" x2="0.5" y2="1" xlink:href="#x"/><linearGradient id="ab" x1="0.5" y1="0.003" x2="0.5" y2="1.019" gradientUnits="objectBoundingBox"><stop offset="0" stop-color="#616369"/><stop offset="0.111" stop-color="#515358"/><stop offset="0.335" stop-color="#37383b"/><stop offset="0.559" stop-color="#242527"/><stop offset="0.782" stop-color="#18191b"/><stop offset="1" stop-color="#151617"/></linearGradient></defs><g transform="translate(-804.97 -2836.86)"><rect width="322.89" height="35.18" transform="translate(826.329 2857.28)" fill="#1a1a1a"/><rect width="322.89" height="66.59" transform="translate(826.329 3456.167)" fill="#1a1a1a"/><g transform="translate(804.97 2836.86)"><path d="M364.587,15.525H112.469C82.639,15.508,58.442,38.9,58.424,67.768v41.76a2.43,2.43,0,0,1,.952,2.3v23.9c0,.5-.029,1.853-.952,2.257V158.4a4.894,4.894,0,0,1,1.359,3.791V210a3.251,3.251,0,0,1-1.359,3.1v9.635a4.9,4.9,0,0,1,1.359,3.793v47.814a3.251,3.251,0,0,1-1.359,3.1v389.77c.017,28.871,24.214,52.262,54.045,52.245H364.587c29.831.017,54.028-23.374,54.045-52.245V67.768c-.019-28.87-24.215-52.26-54.045-52.243Zm31.98,652.008c-.011,16.862-14.144,30.521-31.566,30.509H112.053c-17.422.012-31.555-13.648-31.566-30.509V66.738c.01-16.862,14.144-30.523,31.566-30.511h34.213a4.179,4.179,0,0,1,4.248,4.1v3.7c0,4.757,4.478,16.4,18.352,16.4H309.294c12.36,0,17.726-11.035,17.726-16.747V40.332a4.179,4.179,0,0,1,4.248-4.1H365c17.423-.012,31.556,13.649,31.566,30.511Z" transform="translate(-55.928 -15.525)"/><g transform="translate(4.439 1.253)"><g transform="translate(323.922 8.594)"><path d="M216.034,20.393a49.725,49.725,0,0,1,7.264,4.145A38.69,38.69,0,0,1,241.38,37.923,53.962,53.962,0,0,0,228.267,23.05C224.411,20.673,220.943,19.949,216.034,20.393Z" transform="translate(-216.034 -20.27)" fill="url(#a)"/><path d="M245.14,373.619V63.051a53.268,53.268,0,0,0-7.524-27.342,38.691,38.691,0,0,0-18.082-13.385,49.414,49.414,0,0,1,21.455,40.727V373.622Z" transform="translate(-212.27 -18.057)" fill="url(#b)"/></g><path d="M88.332,20.393a49.589,49.589,0,0,0-7.262,4.145A38.7,38.7,0,0,0,62.985,37.923,53.961,53.961,0,0,1,76.1,23.049C79.955,20.673,83.425,19.949,88.332,20.393Z" transform="translate(-55.461 -11.676)" fill="url(#c)"/><path d="M59.36,372.626V63.051A53.267,53.267,0,0,1,66.884,35.71,38.7,38.7,0,0,1,84.968,22.326,49.416,49.416,0,0,0,63.511,63.051V372.628Z" transform="translate(-59.36 -9.463)" fill="url(#d)"/><path d="M352,16.129H102.127A52.963,52.963,0,0,0,69.3,27.508c3.845-2.381,7.3-3.1,12.189-2.661a48.8,48.8,0,0,1,20.638-4.566H352a48.793,48.793,0,0,1,20.636,4.566c4.889-.44,8.343.28,12.189,2.661A52.957,52.957,0,0,0,352,16.129Z" transform="translate(-48.668 -16.129)" fill="url(#e)"/></g><path d="M231.7,180.272V99.445a4.422,4.422,0,0,1,1.839-3.935v87.975a3.038,3.038,0,0,1-1.839-3.212Z" transform="translate(129.167 63.58)"/><g transform="translate(4.439 338.472)"><g transform="translate(323.922)"><path d="M216.034,371.847A49.522,49.522,0,0,0,223.3,367.7a38.691,38.691,0,0,0,18.082-13.385,53.96,53.96,0,0,1-13.113,14.874C224.411,371.569,220.943,372.293,216.034,371.847Z" transform="translate(-216.034 -16.408)" fill="url(#f)"/><path d="M245.14,191.517V502.086a53.266,53.266,0,0,1-7.524,27.342,38.691,38.691,0,0,1-18.082,13.385,49.414,49.414,0,0,0,21.455-40.727V191.515Z" transform="translate(-212.27 -191.515)" fill="url(#g)"/></g><g transform="translate(0 0.995)"><path d="M88.332,371.847A49.392,49.392,0,0,1,81.07,367.7a38.7,38.7,0,0,1-18.084-13.385A53.96,53.96,0,0,0,76.1,369.192C79.955,371.569,83.425,372.293,88.332,371.847Z" transform="translate(-55.461 -17.403)" fill="url(#h)"/><path d="M59.36,192V501.568a53.268,53.268,0,0,0,7.524,27.342A38.7,38.7,0,0,0,84.968,542.3,49.416,49.416,0,0,1,63.51,501.568V191.994Z" transform="translate(-59.36 -191.994)" fill="url(#i)"/><path d="M352,372.861H102.127A52.963,52.963,0,0,1,69.3,361.483c3.845,2.381,7.3,3.1,12.189,2.659a48.767,48.767,0,0,0,20.638,4.569H352a48.763,48.763,0,0,0,20.636-4.569c4.889.446,8.343-.278,12.189-2.659A52.957,52.957,0,0,1,352,372.861Z" transform="translate(-48.668 -9.698)" fill="url(#j)"/></g></g><path d="M361.075,709.193H109.9c-26.544.014-48.074-20.788-48.088-46.462V64.707c.012-25.478,21.377-46.121,47.717-46.107H360.306c26.577-.015,48.133,20.813,48.146,46.519v598.3c-.015,25.294-21.225,45.788-47.376,45.774ZM109.244,20.2c-25.268-.013-45.763,19.788-45.777,44.228v598.3c.014,24.789,20.8,44.874,46.431,44.859H361.072c25.238.014,45.709-19.764,45.724-44.175V65.117c-.015-24.817-20.83-44.93-46.5-44.917Z" transform="translate(-52.283 -12.213)" fill="url(#k)"/><path d="M241.974,65.737c0-25.531-12.6-38.207-26.615-43.951,3.751,7.391,20.1,13.79,20.1,43.75V655.128c0,29.96-16.354,36.358-20.1,43.75,14.01-5.74,26.615-18.416,26.615-43.951l.393-294.6Z" transform="translate(111.599 -8.786)" fill="url(#l)"/><path d="M63.713,65.737c0-25.531,12.6-38.207,26.613-43.951-3.748,7.391-20.1,13.79-20.1,43.75V655.128c0,29.96,16.353,36.358,20.1,43.75-14.008-5.74-26.613-18.416-26.613-43.951l-.394-294.6Z" transform="translate(-50.662 -8.786)" fill="url(#m)"/><path d="M344.5,19.967H96.476a47.508,47.508,0,0,0-21.545,5.151l1.6,3.306A57.516,57.516,0,0,1,96.48,24.74H344.5a46.9,46.9,0,0,1,19.566,4.224l1.944-4.124a50.95,50.95,0,0,0-21.51-4.873Z" transform="translate(-38.176 -10.747)" opacity="0.38" fill="url(#n)"/><path d="M344.5,367.2H96.476a47.509,47.509,0,0,1-21.545-5.151l1.6-3.306a57.514,57.514,0,0,0,19.947,3.681H344.5a46.9,46.9,0,0,0,19.566-4.224l1.944,4.124A50.95,50.95,0,0,1,344.5,367.2Z" transform="translate(-38.176 326.244)" opacity="0.38" fill="url(#o)"/><g transform="translate(160.298 26.378)"><path d="M156.657,29.394a2.334,2.334,0,0,0-.363-.685l-.16.162Z" transform="translate(-111.766 -27.723)" fill="#1a1a1a"/><path d="M139.275,29.965l-.672.672.516.516h.314l.516-.516Z" transform="translate(-130.622 -26.372)" fill="#1a1a1a"/><path d="M138.354,30.615h.3l-.149-.149Z" transform="translate(-130.889 -25.833)" fill="#1a1a1a"/><rect width="0.951" height="0.95" transform="translate(40.209 3.226) rotate(-44.991)" fill="#1a1a1a"/><rect width="0.951" height="0.951" transform="translate(38.13 3.226) rotate(-45)" fill="#1a1a1a"/><rect width="0.951" height="0.951" transform="translate(24.614 2.186) rotate(-45)" fill="#1a1a1a"/><path d="M156.465,28.756a2.352,2.352,0,0,0-.813-.451l.633.631Z" transform="translate(-112.285 -28.158)" fill="#1a1a1a"/><path d="M141.278,29.965l-.672.672.516.516h.314l.516-.516Z" transform="translate(-128.467 -26.372)" fill="#1a1a1a"/><path d="M138.273,29.965l-.672.672.516.516h.314l.516-.516Z" transform="translate(-131.7 -26.372)" fill="#1a1a1a"/><path d="M139.356,30.615h.3l-.149-.149Z" transform="translate(-129.812 -25.833)" fill="#1a1a1a"/><path d="M155.4,30.572a1.7,1.7,0,0,0,.176-.035l-.07-.07Z" transform="translate(-112.551 -25.833)" fill="#1a1a1a"/><path d="M155.308,29.965l-.672.672.516.516h.314l.516-.516Z" transform="translate(-113.383 -26.372)" fill="#1a1a1a"/><path d="M140.358,30.615h.3l-.149-.149Z" transform="translate(-128.735 -25.833)" fill="#1a1a1a"/><path d="M156.456,30.44a2.315,2.315,0,0,0,.3-.955l-.627.629Z" transform="translate(-111.766 -26.889)" fill="#1a1a1a"/><path d="M155.633,30.637l.295.3a2.361,2.361,0,0,0,.772-.571l-.394-.4Z" transform="translate(-112.305 -26.372)" fill="#1a1a1a"/><path d="M140.277,29.965l-.673.673.516.516h.314l.516-.516Z" transform="translate(-129.545 -26.372)" fill="#1a1a1a"/><rect width="0.951" height="0.951" transform="translate(26.694 2.186) rotate(-45)" fill="#1a1a1a"/><path d="M152.3,29.014l.672-.673-.106-.106h-1.133l-.106.106Z" transform="translate(-116.615 -28.234)" fill="#1a1a1a"/><rect width="0.951" height="0.951" transform="translate(29.812 3.226) rotate(-45)" fill="#1a1a1a"/><rect width="0.951" height="0.951" transform="translate(20.456 2.186) rotate(-45)" fill="#1a1a1a"/><path d="M136.269,29.965l-.672.672.481.481c.06,0,.11.035.17.035h.176l.517-.517Z" transform="translate(-133.855 -26.372)" fill="#1a1a1a"/><rect width="0.951" height="0.951" transform="translate(31.892 3.226) rotate(-45)" fill="#1a1a1a"/><rect width="0.951" height="0.951" transform="translate(27.733 3.226) rotate(-45.009)" fill="#1a1a1a"/><path d="M155.308,29.014l.672-.672-.107-.106h-1.132l-.106.106Z" transform="translate(-113.383 -28.234)" fill="#1a1a1a"/><rect width="0.951" height="0.951" transform="translate(0.703 3.226) rotate(-45)" fill="#1a1a1a"/><path d="M151.3,29.014l.673-.673-.106-.106h-1.132l-.107.106Z" transform="translate(-117.693 -28.234)" fill="#1a1a1a"/><path d="M137.272,29.965l-.673.673.516.516h.314l.516-.516Z" transform="translate(-132.778 -26.372)" fill="#1a1a1a"/><rect width="0.951" height="0.951" transform="translate(36.05 3.226) rotate(-45)" fill="#1a1a1a"/><path d="M154.3,29.013l.672-.672-.106-.106h-1.132l-.106.106Z" transform="translate(-114.46 -28.234)" fill="#1a1a1a"/><rect width="0.951" height="0.951" transform="translate(22.535 2.186) rotate(-45)" fill="#1a1a1a"/><path d="M137.352,30.615h.3l-.15-.149Z" transform="translate(-131.967 -25.833)" fill="#1a1a1a"/><rect width="0.951" height="0.951" transform="translate(33.971 3.226) rotate(-45)" fill="#1a1a1a"/><path d="M153.3,29.014l.672-.672-.106-.106h-1.132l-.106.106Z" transform="translate(-115.537 -28.234)" fill="#1a1a1a"/><path d="M136.351,30.615h.3l-.149-.149Z" transform="translate(-133.044 -25.833)" fill="#1a1a1a"/><path d="M153.381,30.615h.3l-.149-.149Z" transform="translate(-114.727 -25.833)" fill="#1a1a1a"/><path d="M149.292,29.965l-.672.672.516.516h.314l.516-.516Z" transform="translate(-119.847 -26.372)" fill="#1a1a1a"/><rect width="0.951" height="0.951" transform="translate(35.01 2.186) rotate(-45)" fill="#1a1a1a"/><path d="M144.365,30.615h.3l-.149-.149Z" transform="translate(-124.425 -25.833)" fill="#1a1a1a"/><path d="M148.372,30.615h.3l-.149-.149Z" transform="translate(-120.115 -25.833)" fill="#1a1a1a"/><rect width="0.951" height="0.951" transform="translate(30.852 2.186) rotate(-45)" fill="#1a1a1a"/><path d="M150.3,29.965l-.673.673.516.516h.314l.516-.516Z" transform="translate(-118.77 -26.372)" fill="#1a1a1a"/><path d="M149.374,30.615h.3l-.149-.149Z" transform="translate(-119.037 -25.833)" fill="#1a1a1a"/><path d="M154.383,30.615h.3l-.149-.149Z" transform="translate(-113.65 -25.833)" fill="#1a1a1a"/><path d="M146.287,29.965l-.672.672.516.516h.314l.516-.516Z" transform="translate(-123.08 -26.372)" fill="#1a1a1a"/><rect width="0.951" height="0.951" transform="translate(37.09 2.186) rotate(-45)" fill="#1a1a1a"/><path d="M146.368,30.615h.3l-.149-.149Z" transform="translate(-122.269 -25.833)" fill="#1a1a1a"/><path d="M147.289,29.965l-.673.672.516.516h.314l.516-.516Z" transform="translate(-122.002 -26.372)" fill="#1a1a1a"/><rect width="0.951" height="0.951" transform="translate(32.932 2.186) rotate(-45)" fill="#1a1a1a"/><path d="M145.286,29.965l-.673.673.516.516h.314l.516-.516Z" transform="translate(-124.157 -26.372)" fill="#1a1a1a"/><path d="M148.291,29.965l-.673.673.516.516h.314l.516-.516Z" transform="translate(-120.925 -26.372)" fill="#1a1a1a"/><path d="M147.37,30.615h.3l-.15-.149Z" transform="translate(-121.193 -25.833)" fill="#1a1a1a"/><path d="M144.284,29.965l-.672.672.516.516h.314l.516-.516Z" transform="translate(-125.235 -26.372)" fill="#1a1a1a"/><path d="M142.281,29.965l-.673.673.516.516h.314l.516-.516Z" transform="translate(-127.39 -26.372)" fill="#1a1a1a"/><path d="M153.3,29.965l-.673.673.516.516h.314l.516-.516Z" transform="translate(-115.537 -26.372)" fill="#1a1a1a"/><path d="M150.3,29.014l.672-.672-.106-.106h-1.133l-.106.106Z" transform="translate(-118.77 -28.234)" fill="#1a1a1a"/><rect width="0.951" height="0.951" transform="translate(28.773 2.186) rotate(-45)" fill="#1a1a1a"/><path d="M150.375,30.615h.3l-.149-.149Z" transform="translate(-117.96 -25.833)" fill="#1a1a1a"/><rect width="0.95" height="0.95" transform="translate(41.249 2.187) rotate(-45)" fill="#1a1a1a"/><path d="M154.3,29.965l-.672.672.516.516h.313l.516-.516Z" transform="translate(-114.46 -26.372)" fill="#1a1a1a"/><path d="M152.379,30.615h.3l-.149-.149Z" transform="translate(-115.805 -25.833)" fill="#1a1a1a"/><path d="M141.36,30.615h.3l-.149-.149Z" transform="translate(-127.657 -25.833)" fill="#1a1a1a"/><path d="M151.3,29.965l-.673.673.516.516h.314l.516-.516Z" transform="translate(-117.693 -26.372)" fill="#1a1a1a"/><path d="M143.282,29.965l-.673.673.516.516h.314l.516-.516Z" transform="translate(-126.312 -26.372)" fill="#1a1a1a"/><path d="M143.363,30.615h.3l-.149-.149Z" transform="translate(-125.502 -25.833)" fill="#1a1a1a"/><path d="M142.361,30.615h.3l-.15-.149Z" transform="translate(-126.58 -25.833)" fill="#1a1a1a"/><path d="M152.3,29.965l-.672.672.516.516h.314l.516-.516Z" transform="translate(-116.615 -26.372)" fill="#1a1a1a"/><rect width="0.951" height="0.951" transform="translate(39.169 2.186) rotate(-45)" fill="#1a1a1a"/><path d="M151.377,30.615h.3l-.15-.149Z" transform="translate(-116.883 -25.833)" fill="#1a1a1a"/><path d="M145.367,30.615h.3l-.149-.149Z" transform="translate(-123.347 -25.833)" fill="#1a1a1a"/><rect width="0.951" height="0.951" transform="translate(1.743 2.186) rotate(-45.009)" fill="#1a1a1a"/><rect width="0.951" height="0.951" transform="translate(4.862 3.226) rotate(-45)" fill="#1a1a1a"/><rect width="0.95" height="0.951" transform="translate(25.654 1.147) rotate(-45.01)" fill="#1a1a1a"/><path d="M140.278,29.014l.673-.673-.107-.106h-1.132l-.106.106Z" transform="translate(-129.545 -28.234)" fill="#1a1a1a"/><rect width="0.951" height="0.951" transform="translate(23.574 1.147) rotate(-45)" fill="#1a1a1a"/><path d="M138.273,29.014l.673-.673-.106-.106h-1.133l-.106.106Z" transform="translate(-131.7 -28.234)" fill="#1a1a1a"/><rect width="0.951" height="0.951" transform="translate(21.495 1.147) rotate(-45)" fill="#1a1a1a"/><rect width="0.951" height="0.951" transform="translate(2.782 3.226) rotate(-45)" fill="#1a1a1a"/><path d="M139.275,29.014l.672-.672-.106-.106H138.71l-.106.106Z" transform="translate(-130.622 -28.234)" fill="#1a1a1a"/><rect width="0.951" height="0.951" transform="translate(3.822 2.186) rotate(-45)" fill="#1a1a1a"/><path d="M142.281,29.014l.672-.672-.106-.106h-1.132l-.106.106Z" transform="translate(-127.39 -28.234)" fill="#1a1a1a"/><rect width="0.951" height="0.95" transform="translate(17.337 1.147) rotate(-45)" fill="#1a1a1a"/><rect width="0.951" height="0.951" transform="translate(9.02 3.226) rotate(-45)" fill="#1a1a1a"/><path d="M141.279,29.014l.673-.673-.106-.106h-1.132l-.106.106Z" transform="translate(-128.467 -28.234)" fill="#1a1a1a"/><rect width="0.951" height="0.951" transform="translate(19.417 1.147) rotate(-45)" fill="#1a1a1a"/><rect width="0.951" height="0.951" transform="translate(6.94 3.226) rotate(-44.991)" fill="#1a1a1a"/><rect width="0.951" height="0.951" transform="translate(36.05 1.147) rotate(-45)" fill="#1a1a1a"/><rect width="0.95" height="0.95" transform="translate(43.328 2.186) rotate(-45)" fill="#1a1a1a"/><path d="M135.763,29.635l-.672-.672-.2.2a2.338,2.338,0,0,0-.139.683c0,.06.031.11.035.17l.3.3Z" transform="translate(-134.756 -27.45)" fill="#1a1a1a"/><rect width="0.95" height="0.951" transform="translate(40.209 1.146) rotate(-45)" fill="#1a1a1a"/><rect width="0.95" height="0.95" transform="translate(42.288 1.148) rotate(-45.009)" fill="#1a1a1a"/><rect width="0.95" height="0.95" transform="translate(42.288 3.226) rotate(-45)" fill="#1a1a1a"/><path d="M134.98,30.025a2.33,2.33,0,0,0,.538.558l.011-.011Z" transform="translate(-134.519 -26.307)" fill="#1a1a1a"/><rect width="0.951" height="0.95" transform="translate(27.733 1.148) rotate(-45.009)" fill="#1a1a1a"/><rect width="0.951" height="0.951" transform="translate(38.13 1.147) rotate(-45)" fill="#1a1a1a"/><path d="M137.272,29.014l.672-.672-.107-.106H136.7l-.107.106Z" transform="translate(-132.778 -28.234)" fill="#1a1a1a"/><rect width="0.951" height="0.951" transform="translate(31.892 1.147) rotate(-45)" fill="#1a1a1a"/><rect width="0.951" height="0.951" transform="translate(29.812 1.147) rotate(-45.009)" fill="#1a1a1a"/><rect width="0.951" height="0.951" transform="translate(11.099 3.226) rotate(-45)" fill="#1a1a1a"/><rect width="0.951" height="0.951" transform="translate(33.971 1.148) rotate(-45)" fill="#1a1a1a"/><path d="M136.933,28.34l-.108-.106h-.587a2.288,2.288,0,0,0-.629.128l.65.652Z" transform="translate(-133.843 -28.234)" fill="#1a1a1a"/><path d="M146.287,29.014l.673-.673-.106-.106h-1.133l-.106.106Z" transform="translate(-123.08 -28.234)" fill="#1a1a1a"/><rect width="0.951" height="0.951" transform="translate(6.94 1.147) rotate(-45)" fill="#1a1a1a"/><rect width="0.951" height="0.951" transform="translate(21.495 3.226) rotate(-45)" fill="#1a1a1a"/><rect width="0.951" height="0.951" transform="translate(16.298 2.186) rotate(-45)" fill="#1a1a1a"/><rect width="0.951" height="0.951" transform="translate(9.02 1.147) rotate(-45)" fill="#1a1a1a"/><rect width="0.951" height="0.951" transform="translate(19.417 3.226) rotate(-45)" fill="#1a1a1a"/><path d="M148.291,29.014l.673-.673-.106-.106h-1.133l-.106.106Z" transform="translate(-120.925 -28.234)" fill="#1a1a1a"/><path d="M147.289,29.014l.672-.672-.107-.106h-1.132l-.107.106Z" transform="translate(-122.003 -28.234)" fill="#1a1a1a"/><rect width="0.951" height="0.951" transform="translate(14.218 2.186) rotate(-45)" fill="#1a1a1a"/><rect width="0.951" height="0.951" transform="translate(4.862 1.147) rotate(-45)" fill="#1a1a1a"/><rect width="0.951" height="0.951" transform="translate(2.782 1.147) rotate(-45)" fill="#1a1a1a"/><rect width="0.951" height="0.951" transform="translate(0.703 1.148) rotate(-45)" fill="#1a1a1a"/><rect width="0.951" height="0.951" transform="translate(25.654 3.226) rotate(-45)" fill="#1a1a1a"/><rect width="0.951" height="0.951" transform="translate(23.574 3.226) rotate(-45)" fill="#1a1a1a"/><path d="M149.293,29.014l.673-.673-.106-.106h-1.132l-.106.106Z" transform="translate(-119.847 -28.234)" fill="#1a1a1a"/><rect width="0.951" height="0.951" transform="translate(18.376 2.186) rotate(-45)" fill="#1a1a1a"/><rect width="0.95" height="0.951" transform="translate(15.258 1.147) rotate(-45)" fill="#1a1a1a"/><rect width="0.951" height="0.951" transform="translate(10.059 2.186) rotate(-45)" fill="#1a1a1a"/><path d="M145.286,29.014l.672-.672-.106-.106H144.72l-.106.106Z" transform="translate(-124.157 -28.234)" fill="#1a1a1a"/><path d="M144.285,29.014l.673-.673-.106-.106H143.72l-.106.106Z" transform="translate(-125.235 -28.234)" fill="#1a1a1a"/><rect width="0.951" height="0.951" transform="translate(13.178 1.147) rotate(-45.009)" fill="#1a1a1a"/><rect width="0.951" height="0.951" transform="translate(7.981 2.186) rotate(-45)" fill="#1a1a1a"/><rect width="0.951" height="0.951" transform="translate(11.099 1.148) rotate(-45.009)" fill="#1a1a1a"/><rect width="0.951" height="0.951" transform="translate(15.258 3.226) rotate(-45)" fill="#1a1a1a"/><rect width="0.951" height="0.951" transform="translate(12.138 2.186) rotate(-44.991)" fill="#1a1a1a"/><rect width="0.951" height="0.951" transform="translate(5.901 2.186) rotate(-45)" fill="#1a1a1a"/><path d="M143.282,29.014l.673-.673-.106-.106h-1.133l-.106.106Z" transform="translate(-126.312 -28.234)" fill="#1a1a1a"/><rect width="0.951" height="0.951" transform="translate(17.337 3.226) rotate(-45)" fill="#1a1a1a"/><rect width="0.951" height="0.951" transform="translate(13.178 3.226) rotate(-45)" fill="#1a1a1a"/><path d="M135.948,30.46l-.675-.672-.342.342c.031.052.069.1.1.15l.548.548Z" transform="translate(-134.571 -26.562)" fill="#262626"/><path d="M134.776,29.468a2.3,2.3,0,0,0,.1.494l.2-.2Z" transform="translate(-134.738 -26.907)" fill="#262626"/><path d="M135.449,30.6a2.376,2.376,0,0,0,.792.176l-.481-.481Z" transform="translate(-134.014 -26.024)" fill="#262626"/><path d="M136.422,30.656l.149.149h.734l-.516-.516Z" transform="translate(-132.968 -26.023)" fill="#262626"/><rect width="0.519" height="0.951" transform="translate(2.415 3.593) rotate(-45)" fill="#262626"/><rect width="0.518" height="0.951" transform="translate(0.336 1.514) rotate(-45)" fill="#262626"/><rect width="0.518" height="0.951" transform="translate(1.376 2.553) rotate(-45)" fill="#262626"/><rect width="0.518" height="0.951" transform="translate(2.415 1.514) rotate(-44.991)" fill="#262626"/><rect width="0.518" height="0.951" transform="translate(4.495 3.593) rotate(-45.015)" fill="#262626"/><path d="M137.424,30.656l.15.149h.734l-.516-.516Z" transform="translate(-131.89 -26.023)" fill="#262626"/><rect width="0.519" height="0.951" transform="translate(3.455 2.553) rotate(-45)" fill="#262626"/><path d="M136.093,29.313l.365-.365-.65-.652a.215.215,0,0,0-.054.011l-.334.334Z" transform="translate(-134.045 -28.168)" fill="#262626"/><path d="M138.426,30.656l.149.149h.733l-.516-.516Z" transform="translate(-130.812 -26.023)" fill="#262626"/><rect width="0.518" height="0.951" transform="translate(4.495 1.514) rotate(-45)" fill="#262626"/><rect width="0.519" height="0.951" transform="translate(6.573 3.593) rotate(-45)" fill="#262626"/><rect width="0.519" height="0.951" transform="translate(5.534 2.553) rotate(-45)" fill="#262626"/><rect width="0.518" height="0.951" transform="translate(3.455 0.473) rotate(-45)" fill="#262626"/><path d="M136.407,28.234h-.213l.106.106Z" transform="translate(-133.212 -28.234)" fill="#262626"/><path d="M139.428,30.656l.149.149h.734l-.516-.516Z" transform="translate(-129.735 -26.023)" fill="#262626"/><rect width="0.519" height="0.951" transform="translate(5.534 0.474) rotate(-45)" fill="#262626"/><rect width="0.519" height="0.951" transform="translate(8.653 3.593) rotate(-45)" fill="#262626"/><rect width="0.518" height="0.951" transform="translate(6.574 1.514) rotate(-45)" fill="#262626"/><rect width="0.519" height="0.951" transform="translate(7.614 2.553) rotate(-45.009)" fill="#262626"/><path d="M137.41,28.234h-.21l.106.106Z" transform="translate(-132.136 -28.234)" fill="#262626"/><rect width="0.518" height="0.951" transform="translate(7.614 0.473) rotate(-45)" fill="#262626"/><rect width="0.518" height="0.951" transform="translate(10.733 3.593) rotate(-45)" fill="#262626"/><rect width="0.519" height="0.951" transform="translate(9.693 2.553) rotate(-45)" fill="#262626"/><path d="M140.429,30.656l.149.149h.734l-.516-.516Z" transform="translate(-128.657 -26.023)" fill="#262626"/><path d="M138.411,28.234H138.2l.106.106Z" transform="translate(-131.058 -28.234)" fill="#262626"/><rect width="0.519" height="0.951" transform="translate(8.653 1.514) rotate(-44.991)" fill="#262626"/><rect width="0.519" height="0.951" transform="translate(9.692 0.474) rotate(-45)" fill="#262626"/><rect width="0.519" height="0.951" transform="translate(12.811 3.593) rotate(-45)" fill="#262626"/><path d="M139.413,28.234H139.2l.106.106Z" transform="translate(-129.98 -28.234)" fill="#262626"/><rect width="0.519" height="0.951" transform="translate(11.772 2.553) rotate(-45)" fill="#262626"/><rect width="0.518" height="0.951" transform="translate(10.733 1.514) rotate(-45)" fill="#262626"/><path d="M141.431,30.656l.149.149h.734l-.516-.516Z" transform="translate(-127.58 -26.023)" fill="#262626"/><rect width="0.519" height="0.951" transform="translate(13.851 2.553) rotate(-45)" fill="#262626"/><rect width="0.518" height="0.95" transform="translate(11.772 0.474) rotate(-45)" fill="#262626"/><rect width="0.518" height="0.951" transform="translate(14.891 3.593) rotate(-45)" fill="#262626"/><path d="M142.433,30.656l.15.149h.734l-.516-.516Z" transform="translate(-126.502 -26.023)" fill="#262626"/><path d="M140.415,28.234H140.2l.106.106Z" transform="translate(-128.902 -28.234)" fill="#262626"/><rect width="0.519" height="0.951" transform="translate(12.811 1.514) rotate(-44.991)" fill="#262626"/><rect width="0.518" height="0.951" transform="translate(16.97 3.593) rotate(-45)" fill="#262626"/><rect width="0.519" height="0.951" transform="translate(15.931 2.553) rotate(-45)" fill="#262626"/><path d="M143.435,30.656l.149.149h.734l-.516-.516Z" transform="translate(-125.425 -26.023)" fill="#262626"/><path d="M141.416,28.234H141.2l.106.106Z" transform="translate(-127.825 -28.234)" fill="#262626"/><rect width="0.519" height="0.951" transform="translate(13.851 0.473) rotate(-45)" fill="#262626"/><rect width="0.518" height="0.951" transform="translate(14.891 1.514) rotate(-45)" fill="#262626"/><rect width="0.518" height="0.951" transform="translate(16.97 1.514) rotate(-45)" fill="#262626"/><rect width="0.519" height="0.951" transform="translate(18.009 2.553) rotate(-45.009)" fill="#262626"/><path d="M142.417,28.234H142.2l.106.106Z" transform="translate(-126.747 -28.234)" fill="#262626"/><rect width="0.519" height="0.951" transform="translate(15.931 0.474) rotate(-45)" fill="#262626"/><path d="M144.436,30.656l.149.149h.734l-.516-.516Z" transform="translate(-124.348 -26.023)" fill="#262626"/><rect width="0.518" height="0.951" transform="translate(19.05 3.593) rotate(-45)" fill="#262626"/><path d="M143.42,28.234h-.214l.106.106Z" transform="translate(-125.67 -28.234)" fill="#262626"/><rect width="0.519" height="0.951" transform="translate(19.05 1.514) rotate(-44.991)" fill="#262626"/><rect width="0.518" height="0.951" transform="translate(20.089 2.553) rotate(-45)" fill="#262626"/><path d="M145.438,30.656l.149.149h.734l-.516-.516Z" transform="translate(-123.27 -26.023)" fill="#262626"/><rect width="0.518" height="0.951" transform="translate(18.01 0.474) rotate(-45)" fill="#262626"/><rect width="0.518" height="0.951" transform="translate(21.128 3.593) rotate(-45)" fill="#262626"/><path d="M146.44,30.656l.149.149h.734l-.516-.516Z" transform="translate(-122.193 -26.023)" fill="#262626"/><rect width="0.519" height="0.951" transform="translate(22.169 2.553) rotate(-45)" fill="#262626"/><path d="M144.421,28.234h-.213l.106.106Z" transform="translate(-124.593 -28.234)" fill="#262626"/><rect width="0.518" height="0.951" transform="translate(21.128 1.514) rotate(-45)" fill="#262626"/><rect width="0.519" height="0.951" transform="translate(20.089 0.473) rotate(-45)" fill="#262626"/><rect width="0.518" height="0.951" transform="translate(23.208 3.593) rotate(-45)" fill="#262626"/><path d="M147.442,30.656l.15.149h.734l-.516-.516Z" transform="translate(-121.115 -26.023)" fill="#262626"/><path d="M145.424,28.234h-.214l.106.106Z" transform="translate(-123.516 -28.234)" fill="#262626"/><rect width="0.519" height="0.951" transform="translate(23.208 1.514) rotate(-45)" fill="#262626"/><rect width="0.519" height="0.951" transform="translate(24.247 2.553) rotate(-45)" fill="#262626"/><rect width="0.518" height="0.951" transform="translate(25.287 3.593) rotate(-45.017)" fill="#262626"/><rect width="0.519" height="0.951" transform="translate(22.169 0.474) rotate(-45)" fill="#262626"/><path d="M148.444,30.656l.149.149h.734l-.516-.516Z" transform="translate(-120.037 -26.023)" fill="#262626"/><path d="M146.425,28.234h-.213l.107.106Z" transform="translate(-122.438 -28.234)" fill="#262626"/><rect width="0.519" height="0.951" transform="translate(24.247 0.473) rotate(-45)" fill="#262626"/><rect width="0.519" height="0.951" transform="translate(26.327 2.553) rotate(-44.99)" fill="#262626"/><rect width="0.518" height="0.951" transform="translate(27.366 3.593) rotate(-45)" fill="#262626"/><rect width="0.518" height="0.951" transform="translate(25.287 1.514) rotate(-45)" fill="#262626"/><rect width="0.519" height="0.951" transform="translate(26.326 0.474) rotate(-45)" fill="#262626"/><rect width="0.519" height="0.951" transform="translate(29.445 3.593) rotate(-45)" fill="#262626"/><path d="M149.445,30.656l.149.149h.734l-.516-.516Z" transform="translate(-118.96 -26.023)" fill="#262626"/><path d="M147.427,28.234h-.214l.106.106Z" transform="translate(-121.36 -28.234)" fill="#262626"/><rect width="0.519" height="0.951" transform="translate(28.406 2.553) rotate(-45)" fill="#262626"/><rect width="0.518" height="0.951" transform="translate(27.366 1.514) rotate(-45)" fill="#262626"/><rect width="0.518" height="0.95" transform="translate(28.406 0.474) rotate(-45)" fill="#262626"/><path d="M148.429,28.234h-.214l.106.106Z" transform="translate(-120.283 -28.234)" fill="#262626"/><rect width="0.518" height="0.95" transform="translate(31.525 3.593) rotate(-45)" fill="#262626"/><rect width="0.519" height="0.951" transform="translate(29.445 1.514) rotate(-44.991)" fill="#262626"/><rect width="0.519" height="0.951" transform="translate(30.485 2.553) rotate(-45)" fill="#262626"/><path d="M150.447,30.656l.149.149h.734l-.516-.516Z" transform="translate(-117.883 -26.023)" fill="#262626"/><rect width="0.518" height="0.951" transform="translate(33.605 3.593) rotate(-45)" fill="#262626"/><rect width="0.518" height="0.951" transform="translate(31.525 1.514) rotate(-44.991)" fill="#262626"/><path d="M151.449,30.656l.15.149h.734l-.516-.516Z" transform="translate(-116.805 -26.023)" fill="#262626"/><rect width="0.518" height="0.951" transform="translate(30.485 0.473) rotate(-45.009)" fill="#262626"/><rect width="0.519" height="0.951" transform="translate(32.565 2.553) rotate(-45)" fill="#262626"/><path d="M149.43,28.234h-.213l.106.106Z" transform="translate(-119.205 -28.234)" fill="#262626"/><rect width="0.519" height="0.951" transform="translate(32.564 0.474) rotate(-45)" fill="#262626"/><path d="M152.451,30.656l.149.149h.734l-.516-.516Z" transform="translate(-115.727 -26.023)" fill="#262626"/><path d="M150.433,28.234h-.214l.106.106Z" transform="translate(-118.128 -28.234)" fill="#262626"/><rect width="0.518" height="0.951" transform="translate(33.605 1.514) rotate(-45)" fill="#262626"/><rect width="0.518" height="0.951" transform="translate(35.683 3.593) rotate(-45)" fill="#262626"/><rect width="0.519" height="0.951" transform="translate(34.643 2.553) rotate(-45)" fill="#262626"/><rect width="0.518" height="0.951" transform="translate(35.683 1.514) rotate(-44.991)" fill="#262626"/><rect width="0.518" height="0.951" transform="translate(37.763 3.593) rotate(-45)" fill="#262626"/><rect width="0.519" height="0.951" transform="translate(34.644 0.474) rotate(-45)" fill="#262626"/><path d="M153.453,30.656l.149.149h.734l-.516-.516Z" transform="translate(-114.65 -26.023)" fill="#262626"/><path d="M151.435,28.234h-.214l.107.106Z" transform="translate(-117.051 -28.234)" fill="#262626"/><rect width="0.519" height="0.951" transform="translate(36.723 2.553) rotate(-45)" fill="#262626"/><rect width="0.519" height="0.951" transform="translate(36.723 0.473) rotate(-45.009)" fill="#262626"/><rect width="0.519" height="0.95" transform="translate(39.842 3.593) rotate(-45)" fill="#262626"/><rect width="0.518" height="0.951" transform="translate(38.802 2.553) rotate(-45)" fill="#262626"/><path d="M152.435,28.234h-.213l.107.106Z" transform="translate(-115.973 -28.234)" fill="#262626"/><path d="M154.454,30.656l.149.149h.733l-.516-.516Z" transform="translate(-113.573 -26.023)" fill="#262626"/><rect width="0.518" height="0.951" transform="translate(37.763 1.514) rotate(-45)" fill="#262626"/><path d="M153.438,28.234h-.214l.106.106Z" transform="translate(-114.896 -28.234)" fill="#262626"/><rect width="0.519" height="0.951" transform="translate(38.802 0.474) rotate(-45)" fill="#262626"/><rect width="0.519" height="0.951" transform="translate(39.842 1.514) rotate(-45)" fill="#262626"/><rect width="0.52" height="0.95" transform="translate(41.921 3.593) rotate(-45)" fill="#262626"/><path d="M155.456,30.656l.07.07a2.417,2.417,0,0,0,.591-.143l-.295-.295Z" transform="translate(-112.495 -26.024)" fill="#262626"/><rect width="0.519" height="0.95" transform="translate(40.882 2.554) rotate(-45)" fill="#262626"/><path d="M154.439,28.234h-.213l.106.106Z" transform="translate(-113.818 -28.234)" fill="#262626"/><path d="M155.957,30.155l.394.4a2.322,2.322,0,0,0,.3-.44l-.324-.326Z" transform="translate(-111.957 -26.562)" fill="#262626"/><rect width="0.519" height="0.951" transform="translate(40.881 0.474) rotate(-45)" fill="#262626"/><rect width="0.519" height="0.95" transform="translate(41.921 1.515) rotate(-45.009)" fill="#262626"/><rect width="0.519" height="0.95" transform="translate(42.961 2.554) rotate(-44.991)" fill="#262626"/><path d="M155.957,29.15l.672.671.264-.264a1.925,1.925,0,0,0-.05-.247l-.523-.523Z" transform="translate(-111.957 -27.639)" fill="#262626"/><path d="M156.128,29.311l.367-.367-.633-.631c-.021-.008-.044-.008-.064-.015l-.342.342Z" transform="translate(-112.495 -28.165)" fill="#262626"/><path d="M155.432,28.245a.331.331,0,0,0-.044-.011h-.162l.108.108Z" transform="translate(-112.741 -28.234)" fill="#262626"/><path d="M135.862,28.531l-.135-.133a2.363,2.363,0,0,0-.716.629l.176.176Z" transform="translate(-134.486 -28.057)" fill="#333"/><path d="M134.913,28.912a2.4,2.4,0,0,0-.088.3l.2-.2Z" transform="translate(-134.684 -27.505)" fill="#333"/><path d="M135.342,28.876l-.176-.176a2.392,2.392,0,0,0-.3.44l.108.106Z" transform="translate(-134.639 -27.732)" fill="#333"/><path d="M135.825,28.3a2.3,2.3,0,0,0-.469.2l.135.133Z" transform="translate(-134.114 -28.162)" fill="#333"/><path d="M136.761,28.234h-.213l.106.106Z" transform="translate(-132.832 -28.234)" fill="#333"/><rect width="0.951" height="0.518" transform="translate(1.376 1.819) rotate(-45)" fill="#333"/><rect width="0.951" height="0.519" transform="translate(2.415 0.78) rotate(-45)" fill="#333"/><rect width="0.951" height="0.519" transform="translate(0.336 2.859) rotate(-45)" fill="#333"/><path d="M135.022,29.611l-.2.2a2.3,2.3,0,0,0,.22.513l.342-.342Z" transform="translate(-134.685 -26.753)" fill="#333"/><rect width="0.518" height="0.518" transform="translate(1.009 2.186) rotate(-45)" fill="#333"/><rect width="0.518" height="0.518" transform="translate(2.049 1.147) rotate(-45)" fill="#333"/><path d="M136.613,28.707l.367-.367-.107-.106h-.521l-.107.106Z" transform="translate(-133.158 -28.234)" fill="#333"/><rect width="0.951" height="0.518" transform="translate(3.455 1.819) rotate(-45)" fill="#333"/><rect width="0.951" height="0.519" transform="translate(2.415 2.859) rotate(-44.991)" fill="#333"/><path d="M137.763,28.234h-.214l.106.106Z" transform="translate(-131.755 -28.234)" fill="#333"/><rect width="0.951" height="0.519" transform="translate(4.495 0.78) rotate(-45)" fill="#333"/><rect width="0.95" height="0.518" transform="translate(1.376 3.899) rotate(-45)" fill="#333"/><path d="M135.25,30.289l-.011.011c.021.017.046.031.069.048Z" transform="translate(-134.24 -26.024)" fill="#333"/><path d="M135.611,30.112l-.367.367.058.058a2.288,2.288,0,0,0,.367.249l.307-.307Z" transform="translate(-134.235 -26.214)" fill="#333"/><rect width="0.519" height="0.519" transform="translate(2.048 3.226) rotate(-45)" fill="#333"/><rect width="0.518" height="0.518" transform="translate(3.088 2.186) rotate(-45)" fill="#333"/><rect width="0.518" height="0.519" transform="translate(4.128 1.147) rotate(-45)" fill="#333"/><path d="M137.614,28.707l.367-.367-.106-.106h-.52l-.106.106Z" transform="translate(-132.08 -28.234)" fill="#333"/><rect width="0.951" height="0.519" transform="translate(5.534 1.82) rotate(-45.017)" fill="#333"/><rect width="0.951" height="0.519" transform="translate(6.573 0.78) rotate(-45)" fill="#333"/><rect width="0.951" height="0.518" transform="translate(3.455 3.899) rotate(-45)" fill="#333"/><path d="M136.513,30.289,136,30.8h.733l.149-.149Z" transform="translate(-133.424 -26.023)" fill="#333"/><path d="M138.764,28.234h-.213l.106.106Z" transform="translate(-130.678 -28.234)" fill="#333"/><rect width="0.951" height="0.519" transform="translate(4.495 2.859) rotate(-45)" fill="#333"/><rect width="0.518" height="0.518" transform="translate(3.088 4.266) rotate(-45)" fill="#333"/><rect width="0.519" height="0.519" transform="translate(4.128 3.226) rotate(-45)" fill="#333"/><rect width="0.518" height="0.518" transform="translate(5.167 2.186) rotate(-45)" fill="#333"/><rect width="0.519" height="0.519" transform="translate(6.207 1.147) rotate(-45.017)" fill="#333"/><path d="M138.616,28.707l.367-.367-.106-.106h-.521l-.106.106Z" transform="translate(-131.002 -28.234)" fill="#333"/><path d="M139.771,28.234h-.214l.106.106Z" transform="translate(-129.601 -28.234)" fill="#333"/><rect width="0.951" height="0.518" transform="translate(5.534 3.899) rotate(-45)" fill="#333"/><rect width="0.951" height="0.518" transform="translate(6.573 2.859) rotate(-45)" fill="#333"/><path d="M137.515,30.289,137,30.8h.734l.149-.149Z" transform="translate(-132.348 -26.023)" fill="#333"/><rect width="0.951" height="0.519" transform="translate(8.653 0.78) rotate(-45)" fill="#333"/><rect width="0.951" height="0.518" transform="translate(7.614 1.819) rotate(-45)" fill="#333"/><rect width="0.518" height="0.518" transform="translate(5.167 4.266) rotate(-45)" fill="#333"/><rect width="0.519" height="0.518" transform="translate(6.207 3.226) rotate(-45)" fill="#333"/><rect width="0.518" height="0.518" transform="translate(7.247 2.186) rotate(-45)" fill="#333"/><rect width="0.518" height="0.518" transform="translate(8.286 1.147) rotate(-45)" fill="#333"/><path d="M139.618,28.707l.367-.367-.106-.106h-.52l-.106.106Z" transform="translate(-129.926 -28.234)" fill="#333"/><path d="M140.771,28.234h-.214l.106.106Z" transform="translate(-128.523 -28.234)" fill="#333"/><rect width="0.951" height="0.519" transform="translate(8.653 2.859) rotate(-45)" fill="#333"/><rect width="0.951" height="0.518" transform="translate(7.614 3.899) rotate(-45)" fill="#333"/><path d="M138.517,30.289,138,30.8h.734l.149-.149Z" transform="translate(-131.27 -26.023)" fill="#333"/><rect width="0.951" height="0.518" transform="translate(9.693 1.819) rotate(-45)" fill="#333"/><rect width="0.951" height="0.519" transform="translate(10.733 0.78) rotate(-45)" fill="#333"/><rect width="0.519" height="0.519" transform="translate(7.247 4.266) rotate(-45)" fill="#333"/><rect width="0.519" height="0.519" transform="translate(8.286 3.226) rotate(-45)" fill="#333"/><rect width="0.519" height="0.519" transform="translate(9.326 2.186) rotate(-45)" fill="#333"/><rect width="0.519" height="0.519" transform="translate(10.366 1.147) rotate(-45)" fill="#333"/><path d="M140.62,28.707l.367-.367-.106-.106h-.52l-.106.106Z" transform="translate(-128.848 -28.234)" fill="#333"/><path d="M139.518,30.289,139,30.8h.734l.15-.149Z" transform="translate(-130.192 -26.023)" fill="#333"/><rect width="0.951" height="0.518" transform="translate(9.692 3.899) rotate(-45)" fill="#333"/><path d="M141.771,28.234h-.213l.106.106Z" transform="translate(-127.445 -28.234)" fill="#333"/><rect width="0.951" height="0.518" transform="translate(11.771 1.819) rotate(-45)" fill="#333"/><rect width="0.951" height="0.519" transform="translate(10.732 2.859) rotate(-45)" fill="#333"/><rect width="0.951" height="0.518" transform="translate(12.811 0.78) rotate(-45)" fill="#333"/><rect width="0.518" height="0.518" transform="translate(9.325 4.266) rotate(-45)" fill="#333"/><rect width="0.518" height="0.518" transform="translate(10.366 3.226) rotate(-45)" fill="#333"/><rect width="0.519" height="0.519" transform="translate(11.405 2.186) rotate(-45)" fill="#333"/><rect width="0.519" height="0.519" transform="translate(12.444 1.147) rotate(-45)" fill="#333"/><path d="M141.621,28.707l.367-.367-.106-.106h-.521l-.106.106Z" transform="translate(-127.77 -28.234)" fill="#333"/><path d="M142.771,28.234h-.214l.106.106Z" transform="translate(-126.368 -28.234)" fill="#333"/><rect width="0.951" height="0.519" transform="translate(13.851 1.819) rotate(-45)" fill="#333"/><rect width="0.95" height="0.518" transform="translate(11.772 3.899) rotate(-45)" fill="#333"/><rect width="0.951" height="0.518" transform="translate(14.891 0.78) rotate(-45)" fill="#333"/><path d="M140.52,30.289,140,30.8h.734l.149-.149Z" transform="translate(-129.115 -26.023)" fill="#333"/><rect width="0.951" height="0.519" transform="translate(12.811 2.859) rotate(-44.991)" fill="#333"/><rect width="0.519" height="0.519" transform="translate(11.405 4.266) rotate(-45)" fill="#333"/><rect width="0.519" height="0.519" transform="translate(12.444 3.226) rotate(-45)" fill="#333"/><rect width="0.519" height="0.519" transform="translate(13.485 2.186) rotate(-45)" fill="#333"/><rect width="0.518" height="0.518" transform="translate(14.524 1.147) rotate(-45)" fill="#333"/><path d="M142.623,28.707l.367-.367-.106-.106h-.52l-.106.106Z" transform="translate(-126.693 -28.234)" fill="#333"/><path d="M143.771,28.234h-.214l.106.106Z" transform="translate(-125.29 -28.234)" fill="#333"/><rect width="0.951" height="0.519" transform="translate(14.891 2.859) rotate(-45)" fill="#333"/><rect width="0.951" height="0.519" transform="translate(16.97 0.78) rotate(-45)" fill="#333"/><rect width="0.951" height="0.518" transform="translate(15.931 1.82) rotate(-45)" fill="#333"/><rect width="0.951" height="0.519" transform="translate(13.851 3.899) rotate(-45)" fill="#333"/><path d="M141.522,30.289l-.516.516h.734l.149-.149Z" transform="translate(-128.037 -26.023)" fill="#333"/><rect width="0.519" height="0.519" transform="translate(13.485 4.266) rotate(-45)" fill="#333"/><rect width="0.519" height="0.519" transform="translate(14.524 3.226) rotate(-45)" fill="#333"/><rect width="0.518" height="0.518" transform="translate(15.564 2.186) rotate(-45)" fill="#333"/><rect width="0.519" height="0.519" transform="translate(16.603 1.147) rotate(-45)" fill="#333"/><path d="M143.625,28.707l.367-.367-.106-.106h-.52l-.107.106Z" transform="translate(-125.615 -28.234)" fill="#333"/><path d="M142.524,30.289l-.516.516h.734l.149-.149Z" transform="translate(-126.96 -26.023)" fill="#333"/><rect width="0.951" height="0.518" transform="translate(15.931 3.899) rotate(-45)" fill="#333"/><rect width="0.951" height="0.518" transform="translate(18.009 1.819) rotate(-45)" fill="#333"/><rect width="0.951" height="0.518" transform="translate(19.05 0.78) rotate(-45)" fill="#333"/><rect width="0.951" height="0.519" transform="translate(16.97 2.859) rotate(-45)" fill="#333"/><path d="M144.771,28.234h-.213l.106.106Z" transform="translate(-124.212 -28.234)" fill="#333"/><rect width="0.518" height="0.518" transform="translate(15.564 4.266) rotate(-45)" fill="#333"/><rect width="0.519" height="0.519" transform="translate(16.603 3.226) rotate(-45)" fill="#333"/><rect width="0.518" height="0.518" transform="translate(17.642 2.186) rotate(-45)" fill="#333"/><rect width="0.518" height="0.518" transform="translate(18.683 1.147) rotate(-45)" fill="#333"/><path d="M144.627,28.707l.367-.367-.106-.106h-.521l-.106.106Z" transform="translate(-124.538 -28.234)" fill="#333"/><path d="M143.53,30.289l-.516.516h.734l.15-.149Z" transform="translate(-125.883 -26.023)" fill="#333"/><rect width="0.951" height="0.518" transform="translate(18.01 3.899) rotate(-45)" fill="#333"/><rect width="0.951" height="0.519" transform="translate(19.05 2.859) rotate(-45)" fill="#333"/><rect width="0.951" height="0.518" transform="translate(20.089 1.819) rotate(-45)" fill="#333"/><rect width="0.951" height="0.519" transform="translate(21.128 0.78) rotate(-45)" fill="#333"/><path d="M145.777,28.234h-.214l.107.106Z" transform="translate(-123.136 -28.234)" fill="#333"/><rect width="0.518" height="0.518" transform="translate(17.643 4.266) rotate(-45)" fill="#333"/><rect width="0.519" height="0.519" transform="translate(18.683 3.226) rotate(-45)" fill="#333"/><rect width="0.518" height="0.518" transform="translate(19.722 2.186) rotate(-45)" fill="#333"/><rect width="0.519" height="0.519" transform="translate(20.761 1.147) rotate(-45)" fill="#333"/><path d="M145.628,28.707,146,28.34l-.106-.106h-.52l-.106.106Z" transform="translate(-123.46 -28.234)" fill="#333"/><path d="M144.53,30.289l-.516.516h.734l.149-.149Z" transform="translate(-124.805 -26.023)" fill="#333"/><path d="M146.778,28.234h-.213l.107.106Z" transform="translate(-122.057 -28.234)" fill="#333"/><rect width="0.951" height="0.519" transform="translate(21.128 2.859) rotate(-45)" fill="#333"/><rect width="0.951" height="0.518" transform="translate(22.169 1.819) rotate(-45)" fill="#333"/><rect width="0.951" height="0.519" transform="translate(20.089 3.899) rotate(-45)" fill="#333"/><rect width="0.951" height="0.519" transform="translate(23.208 0.78) rotate(-45)" fill="#333"/><rect width="0.518" height="0.518" transform="translate(19.722 4.266) rotate(-45)" fill="#333"/><rect width="0.518" height="0.519" transform="translate(20.761 3.226) rotate(-45)" fill="#333"/><rect width="0.519" height="0.519" transform="translate(21.802 2.186) rotate(-45)" fill="#333"/><rect width="0.519" height="0.518" transform="translate(22.841 1.147) rotate(-45)" fill="#333"/><path d="M146.63,28.707l.37-.367-.107-.106h-.521l-.107.106Z" transform="translate(-122.383 -28.234)" fill="#333"/><rect width="0.951" height="0.518" transform="translate(22.169 3.899) rotate(-45)" fill="#333"/><rect width="0.951" height="0.519" transform="translate(23.208 2.859) rotate(-45)" fill="#333"/><rect width="0.951" height="0.519" transform="translate(24.247 1.819) rotate(-45)" fill="#333"/><path d="M145.53,30.289l-.516.516h.734l.149-.149Z" transform="translate(-123.728 -26.023)" fill="#333"/><path d="M147.781,28.234h-.214l.106.106Z" transform="translate(-120.98 -28.234)" fill="#333"/><rect width="0.951" height="0.518" transform="translate(25.287 0.78) rotate(-44.983)" fill="#333"/><rect width="0.519" height="0.519" transform="translate(21.802 4.266) rotate(-45)" fill="#333"/><rect width="0.518" height="0.518" transform="translate(22.841 3.226) rotate(-45)" fill="#333"/><rect width="0.519" height="0.519" transform="translate(23.88 2.186) rotate(-45)" fill="#333"/><rect width="0.518" height="0.518" transform="translate(24.921 1.147) rotate(-45.017)" fill="#333"/><path d="M147.632,28.707,148,28.34l-.107-.106h-.52l-.106.106Z" transform="translate(-121.305 -28.234)" fill="#333"/><rect width="0.951" height="0.519" transform="translate(25.287 2.859) rotate(-45)" fill="#333"/><path d="M146.53,30.289l-.516.516h.734l.149-.149Z" transform="translate(-122.65 -26.023)" fill="#333"/><rect width="0.951" height="0.519" transform="translate(24.247 3.899) rotate(-45)" fill="#333"/><rect width="0.951" height="0.519" transform="translate(27.366 0.781) rotate(-45)" fill="#333"/><rect width="0.951" height="0.518" transform="translate(26.327 1.82) rotate(-45)" fill="#333"/><path d="M148.783,28.234h-.214l.106.106Z" transform="translate(-119.903 -28.234)" fill="#333"/><rect width="0.518" height="0.518" transform="translate(23.88 4.266) rotate(-45)" fill="#333"/><rect width="0.519" height="0.519" transform="translate(24.921 3.226) rotate(-45)" fill="#333"/><rect width="0.518" height="0.518" transform="translate(25.96 2.186) rotate(-45.017)" fill="#333"/><rect width="0.519" height="0.519" transform="translate(26.999 1.147) rotate(-45)" fill="#333"/><path d="M148.634,28.707,149,28.34l-.106-.106h-.52l-.106.106Z" transform="translate(-120.227 -28.234)" fill="#333"/><rect width="0.951" height="0.519" transform="translate(28.406 1.819) rotate(-45)" fill="#333"/><path d="M149.783,28.234h-.213l.106.106Z" transform="translate(-118.825 -28.234)" fill="#333"/><path d="M147.53,30.289l-.516.516h.734l.149-.149Z" transform="translate(-121.572 -26.023)" fill="#333"/><rect width="0.951" height="0.518" transform="translate(29.445 0.78) rotate(-45)" fill="#333"/><rect width="0.951" height="0.518" transform="translate(26.326 3.899) rotate(-45)" fill="#333"/><rect width="0.951" height="0.518" transform="translate(27.366 2.859) rotate(-45)" fill="#333"/><rect width="0.518" height="0.518" transform="translate(25.96 4.266) rotate(-45)" fill="#333"/><rect width="0.518" height="0.518" transform="translate(26.999 3.226) rotate(-45)" fill="#333"/><rect width="0.518" height="0.518" transform="translate(28.039 2.186) rotate(-45)" fill="#333"/><rect width="0.519" height="0.519" transform="translate(29.078 1.147) rotate(-45)" fill="#333"/><path d="M149.636,28.707,150,28.34l-.106-.106h-.521l-.106.106Z" transform="translate(-119.151 -28.234)" fill="#333"/><path d="M148.53,30.289l-.516.516h.734l.15-.149Z" transform="translate(-120.494 -26.023)" fill="#333"/><rect width="0.951" height="0.518" transform="translate(30.485 1.819) rotate(-45)" fill="#333"/><rect width="0.951" height="0.519" transform="translate(29.445 2.859) rotate(-45)" fill="#333"/><path d="M150.786,28.234h-.214l.106.106Z" transform="translate(-117.748 -28.234)" fill="#333"/><rect width="0.95" height="0.518" transform="translate(31.525 0.78) rotate(-45)" fill="#333"/><rect width="0.95" height="0.518" transform="translate(28.406 3.899) rotate(-45)" fill="#333"/><rect width="0.518" height="0.518" transform="translate(28.039 4.266) rotate(-45)" fill="#333"/><rect width="0.519" height="0.519" transform="translate(29.078 3.226) rotate(-45)" fill="#333"/><rect width="0.518" height="0.518" transform="translate(30.118 2.186) rotate(-45)" fill="#333"/><rect width="0.518" height="0.518" transform="translate(31.158 1.147) rotate(-45)" fill="#333"/><path d="M150.637,28.707,151,28.34l-.106-.106h-.52l-.106.106Z" transform="translate(-118.073 -28.234)" fill="#333"/><rect width="0.951" height="0.519" transform="translate(30.485 3.899) rotate(-45)" fill="#333"/><path d="M151.788,28.234h-.214l.107.106Z" transform="translate(-116.67 -28.234)" fill="#333"/><rect width="0.951" height="0.518" transform="translate(32.565 1.82) rotate(-45)" fill="#333"/><path d="M149.536,30.289l-.516.516h.734l.149-.149Z" transform="translate(-119.417 -26.023)" fill="#333"/><rect width="0.951" height="0.519" transform="translate(33.605 0.78) rotate(-45)" fill="#333"/><rect width="0.951" height="0.518" transform="translate(31.525 2.859) rotate(-45)" fill="#333"/><rect width="0.518" height="0.518" transform="translate(30.118 4.266) rotate(-45)" fill="#333"/><rect width="0.519" height="0.519" transform="translate(31.158 3.226) rotate(-45)" fill="#333"/><rect width="0.518" height="0.518" transform="translate(32.198 2.186) rotate(-45)" fill="#333"/><rect width="0.519" height="0.519" transform="translate(33.238 1.147) rotate(-45)" fill="#333"/><path d="M151.639,28.707l.367-.367-.106-.106h-.52l-.106.106Z" transform="translate(-116.995 -28.234)" fill="#333"/><path d="M150.538,30.289l-.516.516h.734l.15-.149Z" transform="translate(-118.34 -26.023)" fill="#333"/><path d="M152.789,28.234h-.213l.107.106Z" transform="translate(-115.593 -28.234)" fill="#333"/><rect width="0.951" height="0.518" transform="translate(32.564 3.899) rotate(-45)" fill="#333"/><rect width="0.951" height="0.519" transform="translate(33.605 2.859) rotate(-45)" fill="#333"/><rect width="0.951" height="0.519" transform="translate(34.643 1.819) rotate(-45)" fill="#333"/><rect width="0.951" height="0.518" transform="translate(35.683 0.78) rotate(-45)" fill="#333"/><rect width="0.518" height="0.518" transform="translate(32.197 4.266) rotate(-45)" fill="#333"/><rect width="0.518" height="0.518" transform="translate(33.238 3.226) rotate(-45)" fill="#333"/><rect width="0.519" height="0.519" transform="translate(34.277 2.186) rotate(-45)" fill="#333"/><rect width="0.518" height="0.518" transform="translate(35.316 1.147) rotate(-45)" fill="#333"/><path d="M152.641,28.707l.367-.367-.106-.106h-.521l-.106.106Z" transform="translate(-115.918 -28.234)" fill="#333"/><rect width="0.951" height="0.519" transform="translate(37.763 0.78) rotate(-45)" fill="#333"/><path d="M151.54,30.289l-.516.516h.734l.149-.149Z" transform="translate(-117.263 -26.023)" fill="#333"/><path d="M153.791,28.234h-.213l.107.106Z" transform="translate(-114.515 -28.234)" fill="#333"/><rect width="0.951" height="0.518" transform="translate(36.723 1.819) rotate(-45)" fill="#333"/><rect width="0.951" height="0.518" transform="translate(35.683 2.859) rotate(-45)" fill="#333"/><rect width="0.951" height="0.519" transform="translate(34.644 3.899) rotate(-45)" fill="#333"/><rect width="0.518" height="0.518" transform="translate(34.277 4.266) rotate(-45)" fill="#333"/><rect width="0.519" height="0.519" transform="translate(35.316 3.226) rotate(-45)" fill="#333"/><rect width="0.518" height="0.518" transform="translate(36.357 2.186) rotate(-45)" fill="#333"/><rect width="0.519" height="0.519" transform="translate(37.396 1.147) rotate(-45)" fill="#333"/><path d="M153.643,28.707l.367-.367-.106-.106h-.518l-.106.106Z" transform="translate(-114.841 -28.234)" fill="#333"/><rect width="0.95" height="0.519" transform="translate(39.842 0.78) rotate(-45)" fill="#333"/><rect width="0.951" height="0.518" transform="translate(38.802 1.82) rotate(-45)" fill="#333"/><rect width="0.951" height="0.518" transform="translate(36.723 3.899) rotate(-45)" fill="#333"/><path d="M152.541,30.289l-.516.516h.733l.149-.149Z" transform="translate(-116.185 -26.023)" fill="#333"/><path d="M154.793,28.234h-.213l.106.106Z" transform="translate(-113.438 -28.234)" fill="#333"/><rect width="0.951" height="0.519" transform="translate(37.763 2.859) rotate(-45)" fill="#333"/><rect width="0.518" height="0.518" transform="translate(36.356 4.266) rotate(-45)" fill="#333"/><rect width="0.518" height="0.519" transform="translate(37.396 3.226) rotate(-45)" fill="#333"/><rect width="0.518" height="0.518" transform="translate(38.435 2.186) rotate(-45)" fill="#333"/><rect width="0.519" height="0.518" transform="translate(39.475 1.147) rotate(-45)" fill="#333"/><path d="M154.644,28.707l.367-.367-.107-.106h-.519l-.106.106Z" transform="translate(-113.763 -28.234)" fill="#333"/><path d="M153.543,30.289l-.516.516h.734l.149-.149Z" transform="translate(-115.107 -26.023)" fill="#333"/><rect width="0.951" height="0.519" transform="translate(38.802 3.899) rotate(-44.984)" fill="#333"/><rect width="0.95" height="0.52" transform="translate(41.921 0.78) rotate(-45.003)" fill="#333"/><rect width="0.951" height="0.519" transform="translate(39.842 2.859) rotate(-45)" fill="#333"/><rect width="0.95" height="0.52" transform="translate(40.882 1.819) rotate(-45)" fill="#333"/><rect width="0.518" height="0.519" transform="translate(38.435 4.266) rotate(-45)" fill="#333"/><rect width="0.519" height="0.519" transform="translate(39.475 3.226) rotate(-45)" fill="#333"/><rect width="0.519" height="0.519" transform="translate(40.514 2.186) rotate(-45)" fill="#333"/><rect width="0.519" height="0.52" transform="translate(41.553 1.147) rotate(-45)" fill="#333"/><path d="M155.649,28.7l.342-.342a2.324,2.324,0,0,0-.616-.122l-.1.1Z" transform="translate(-112.686 -28.228)" fill="#333"/><path d="M156.324,29.072l.16-.162a2.364,2.364,0,0,0-.347-.388l-.18.18Z" transform="translate(-111.957 -27.924)" fill="#333"/><rect width="0.95" height="0.519" transform="translate(42.961 1.819) rotate(-45)" fill="#333"/><rect width="0.95" height="0.519" transform="translate(41.921 2.859) rotate(-45)" fill="#333"/><rect width="0.951" height="0.519" transform="translate(40.881 3.899) rotate(-45)" fill="#333"/><path d="M154.545,30.289l-.516.516h.734l.149-.149Z" transform="translate(-114.031 -26.023)" fill="#333"/><rect width="0.519" height="0.519" transform="translate(40.514 4.266) rotate(-45)" fill="#333"/><rect width="0.52" height="0.519" transform="translate(41.553 3.226) rotate(-44.984)" fill="#333"/><rect width="0.519" height="0.519" transform="translate(42.593 2.186) rotate(-45)" fill="#333"/><rect width="0.519" height="0.52" transform="translate(43.632 1.147) rotate(-45)" fill="#333"/><path d="M155.957,29.959l.367.367.627-.629c0-.025.014-.046.017-.073l-.338-.338Z" transform="translate(-111.957 -27.102)" fill="#333"/><rect width="0.95" height="0.519" transform="translate(42.961 3.898) rotate(-45)" fill="#333"/><path d="M155.547,30.289l-.517.517h.57a1.722,1.722,0,0,0,.206-.044l.108-.106Z" transform="translate(-112.954 -26.024)" fill="#333"/><rect width="0.52" height="0.519" transform="translate(42.594 4.266) rotate(-44.984)" fill="#333"/><rect width="0.519" height="0.519" transform="translate(43.632 3.226) rotate(-44.984)" fill="#333"/><path d="M156.619,29.764c0-.046.027-.088.027-.133a2.253,2.253,0,0,0-.1-.473l-.264.264Z" transform="translate(-111.608 -27.24)" fill="#333"/></g><g transform="translate(217.912 25.363)"><g transform="translate(2.173 0.784)"><path d="M169.06,28.123a5.457,5.457,0,0,1-4.994,7.681c-.15,0-.29-.031-.44-.044a4.942,4.942,0,0,0,1.27.183,5.017,5.017,0,0,0,4.159-7.82Z" transform="translate(-163.626 -28.123)" fill="#1a1a1a"/></g><path d="M169.038,30.972a3.227,3.227,0,1,1-3.227-3.227A3.227,3.227,0,0,1,169.038,30.972Z" transform="translate(-162.583 -27.745)" fill="url(#p)"/><g transform="translate(0.748 0.834)"><path d="M165.709,28.2c-1.7.139-2.535,1.7-.868,4.164C166.612,32.189,167.374,30.557,165.709,28.2Z" transform="translate(-161.876 -28.094)" fill="url(#q)"/><path d="M164.556,28.147a2.528,2.528,0,0,0-.347,4.546C163.861,31.1,165.389,29.426,164.556,28.147Z" transform="translate(-162.944 -28.147)" fill="url(#r)"/></g></g><path d="M229.774,612.241h5.839v-4.188h-5.839Zm0-562.9v4.186h5.839V49.342Z" transform="translate(127.105 20.847)" fill="url(#s)"/><path d="M64.243,608.052H58.4v4.188h5.84ZM58.4,49.342v4.186h5.84V49.342Z" transform="translate(-55.95 20.847)" fill="url(#t)"/><g transform="translate(361.607 160.707)"><path d="M233.95,96.946c-.745.726-.745,3-.745,7.225v72.371c0,1.4-.037,2.966.66,3.168.312-.247.338-1.033.338-1.927V99.877C234.2,98.8,234.233,97.2,233.95,96.946Z" transform="translate(-230.811 -95.619)" fill="url(#u)"/><path d="M234.446,177.23V104.86c0-4.224,0-6.5.745-7.225l-2.136-1.328c-1.069,1.621-1,5.056-1,6.367V175.34c0,3.317.2,5.469.842,5.934l2.211-.874C234.408,180.2,234.446,178.627,234.446,177.23Z" transform="translate(-232.052 -96.307)" fill="url(#v)"/></g><g transform="translate(0.168 143.897)"><path d="M57.556,88.353c.747.726.747,3,.747,7.225v41.447c0,1.4.035,2.966-.662,3.168-.312-.247-.338-1.033-.338-1.927V91.284C57.3,90.2,57.275,88.606,57.556,88.353Z" transform="translate(-57.302 -87.027)" fill="url(#w)"/><path d="M58.172,137.712V96.265c0-4.224,0-6.5-.747-7.225l2.136-1.326c1.071,1.619,1,5.054,1,6.366v41.742c0,3.317-.2,5.469-.842,5.934l-2.211-.874C58.207,140.679,58.172,139.11,58.172,137.712Z" transform="translate(-57.169 -87.714)" fill="url(#x)"/></g><g transform="translate(0.168 207.994)"><path d="M57.556,120.509c.747.726.747,3,.747,7.225v41.447c0,1.4.035,2.966-.662,3.168-.312-.247-.338-1.033-.338-1.927V123.44C57.3,122.358,57.275,120.765,57.556,120.509Z" transform="translate(-57.302 -119.182)" fill="url(#w)"/><path d="M58.172,169.87V128.423c0-4.224,0-6.5-.747-7.225l2.136-1.328c1.071,1.621,1,5.056,1,6.367v41.742c0,3.314-.2,5.467-.842,5.932l-2.211-.872C58.207,172.836,58.172,171.265,58.172,169.87Z" transform="translate(-57.169 -119.87)" fill="url(#x)"/></g><g transform="translate(0 98.465)"><path d="M57.221,63.612V89.791l.65.65V62.965Z" transform="translate(-57.221 -62.964)" fill="#555658"/><path d="M59.382,62.965H57.534V90.441l.048.05h1.959c.326-.326.344-.8.344-1.5V64.47C59.886,63.656,59.8,63.152,59.382,62.965Z" transform="translate(-56.884 -62.965)" fill="url(#aa)"/></g><path d="M169.224,366.57H141.941a14.726,14.726,0,0,0-7.906,2.127h43.094a14.726,14.726,0,0,0-7.9-2.127Z" transform="translate(24.772 335.241)"/><path d="M167.694,366.772h-25.6a15.7,15.7,0,0,0-7.418,1.708h40.438a15.7,15.7,0,0,0-7.42-1.708Z" transform="translate(25.46 335.458)" fill="url(#ab)"/><path d="M133.136,31.434a3.659,3.659,0,1,1-3.659-3.659A3.659,3.659,0,0,1,133.136,31.434Z" transform="translate(16.056 -2.349)" fill="#1a1a1a"/><path d="M181.992,31.434a3.66,3.66,0,1,1-3.66-3.659,3.66,3.66,0,0,1,3.66,3.659Z" transform="translate(68.244 -2.349)" fill="#1a1a1a"/><path d="M120.947,31.434a3.66,3.66,0,1,1-3.66-3.659,3.66,3.66,0,0,1,3.66,3.659Z" transform="translate(3.033 -2.349)" fill="#1a1a1a"/></g><path d="M168.983,0C262.31,0,337.967,3.375,337.967,7.539s-75.657,7.539-168.983,7.539S0,11.7,0,7.539,75.657,0,168.983,0Z" transform="translate(818.79 3576.782)" opacity="0.1"/><g transform="translate(833.867 2898.778)"><g transform="translate(0 563.671)" fill="none" stroke="#707070" stroke-width="1"><rect width="270.121" height="38.949" rx="19.475" stroke="none"/><rect x="0.5" y="0.5" width="269.121" height="37.949" rx="18.975" fill="none"/></g><text transform="translate(16.334 584.235)" fill="#fff" font-size="7" font-family="SegoeUI, Segoe UI"><tspan x="0" y="0"> </tspan></text><g transform="translate(286.964 575.302)"><path d="M347.53,826.674H364.2l-8.134,14.184-1.984-8.531Z" transform="translate(-346.65 -825.794)" fill="none"/><path d="M347.41,826.554l6.547,5.655,1.984,8.531,8.134-14.185H347.41m0-.88h16.665a.88.88,0,0,1,.763,1.318L356.7,841.177a.88.88,0,0,1-.763.443.907.907,0,0,1-.128-.01.88.88,0,0,1-.729-.672l-1.919-8.252-6.33-5.466a.881.881,0,0,1,.576-1.546Z" transform="translate(-346.53 -825.674)" fill="#fff"/><line y1="6.051" x2="11.093" transform="translate(6.901 0.705)" fill="none" stroke="#fff" stroke-width="1"/></g></g><text transform="translate(850.2 2877.501)" fill="#fff" font-size="12" font-family="Roboto-Bold, Roboto" font-weight="700"><tspan x="0" y="0">12:00</tspan></text></g></svg>