<svg xmlns="http://www.w3.org/2000/svg" xmlns:xlink="http://www.w3.org/1999/xlink" width="0" height="0" style="position:absolute">
		<symbol id="icon-arrow-down" viewBox="0 0 403.6 490">
			<path d="M9.6,311.3c-12.8-12.8-12.8-33.4,0-46.2c6.4-6.4,14.7-9.6,23.1-9.6s16.7,3.2,23.1,9.6l113.4,113.4V32.7
		c0-18,14.6-32.7,32.7-32.7c18,0,32.7,14.6,32.7,32.7v345.8l113.2-113.4c12.8-12.8,33.4-12.8,46.2,0c12.8,12.8,12.8,33.4,0,46.2
		L224.9,480.4c-6.1,6.1-14.4,9.6-23.1,9.6c-8.7,0-17-3.4-23.1-9.6L9.6,311.3z"/>
		</symbol>
		<symbol id="icon-arrow-up" viewBox="0 0 403.6 490">
			<path d="M394,178.7c12.8,12.8,12.8,33.4,0,46.2c-6.4,6.4-14.7,9.6-23.1,9.6s-16.7-3.2-23.1-9.6L234.5,111.5v345.8
		c0,18-14.6,32.7-32.7,32.7s-32.7-14.6-32.7-32.7V111.5L55.8,224.9c-12.8,12.8-33.4,12.8-46.2,0s-12.8-33.4,0-46.2L178.7,9.6
		c6.1-6.2,14.4-9.6,23.1-9.6s17,3.4,23.1,9.6L394,178.7z"/>
		</symbol>
		<symbol id="icon-close" viewBox="0 0 30 30">
			<path d="M16.657 15l13-13A1.172 1.172 0 0 0 28 .344l-13 13-13-13A1.172 1.172 0 1 0 .344 2.001l13 12.999-13 13a1.172 1.172 0 1 0 1.658 1.657l12.999-13 13 13a1.168 1.168 0 0 0 1.657 0c.457-.458.457-1.2 0-1.657l-13-13z"></path>
		</symbol>
		<symbol id="icon-load" viewBox="0 0 20 17">
			<path d="M19.427 8.288c-.318 0-.573.233-.573.525v4.78c0 1.301-1.154 2.356-2.568 2.356H3.714c-1.418 0-2.568-1.059-2.568-2.355V8.736c0-.292-.255-.526-.573-.526-.318 0-.573.234-.573.526v4.858C0 15.474 1.668 17 3.714 17h12.572C18.336 17 20 15.47 20 13.594v-4.78c0-.289-.255-.526-.573-.526z"></path><path d="M9.597 12.827a.604.604 0 0 0 .806 0l3.642-3.34a.494.494 0 0 0 0-.744.608.608 0 0 0-.81 0l-2.662 2.445V.526C10.573.234 10.318 0 10 0c-.318 0-.573.234-.573.526v10.662L6.761 8.743a.608.608 0 0 0-.81 0 .494.494 0 0 0 0 .744l3.646 3.34z"></path>
		</symbol>
</svg>

